<?xml version="1.0" encoding="UTF-8" standalone="no"?><!DOCTYPE svg PUBLIC "-//W3C//DTD SVG 1.1//EN" "http://www.w3.org/Graphics/SVG/1.1/DTD/svg11.dtd"><svg width="100%" height="100%" viewBox="0 0 95 19" version="1.1" xmlns="http://www.w3.org/2000/svg" xmlns:xlink="http://www.w3.org/1999/xlink" xml:space="preserve" xmlns:serif="http://www.serif.com/" style="fill-rule:evenodd;clip-rule:evenodd;stroke-linejoin:round;stroke-miterlimit:1.41421;"><g><g><path d="M2.192,7.031l-1.663,0c-0.075,0 -0.151,-0.076 -0.151,-0.227c0.076,-0.832 0.378,-1.588 0.983,-2.117c0.605,-0.529 1.436,-0.831 2.343,-0.831c1.059,0 1.89,0.302 2.495,0.982c0.605,0.605 0.983,1.437 0.983,2.495l0,6.955c0,0.152 -0.076,0.227 -0.227,0.227l-1.587,0c-0.152,0 -0.227,-0.075 -0.227,-0.227l0,-0.529l-0.076,0c-0.453,0.605 -1.209,0.832 -2.117,0.832c-0.756,0 -1.436,-0.227 -2.041,-0.681c-0.605,-0.453 -0.907,-1.134 -0.907,-2.268c0,-1.209 0.378,-2.041 1.058,-2.646c0.756,-0.529 1.664,-0.831 2.798,-0.831l1.209,0c0.076,0 0.076,0 0.076,-0.076l0,-0.605c0,-0.604 -0.151,-1.058 -0.378,-1.36c-0.303,-0.378 -0.605,-0.53 -1.059,-0.53c-0.378,0 -0.604,0.152 -0.831,0.378c-0.303,0.152 -0.378,0.454 -0.454,0.832c0,0.151 -0.075,0.227 -0.227,0.227Zm2.873,2.721l-1.209,0c-0.53,0 -0.983,0.152 -1.286,0.454c-0.302,0.302 -0.529,0.756 -0.529,1.285c0,0.529 0.151,0.832 0.378,1.134c0.227,0.303 0.605,0.378 0.983,0.378c0.454,-0.075 0.907,-0.227 1.21,-0.529c0.378,-0.302 0.529,-0.756 0.529,-1.285l0,-1.361c0,-0.076 0,-0.076 -0.076,-0.076Z" style="fill:#f4cc8b;"/><path d="M10.735,3.931c0,0.076 0,0.076 0.076,0.076l1.436,0c0.151,0 0.227,0.075 0.227,0.227l0,1.058c0,0.151 -0.076,0.227 -0.227,0.227l-1.436,0c-0.076,0 -0.076,0 -0.076,0.075l0,8.77c0,0.151 -0.075,0.227 -0.227,0.227l-1.512,0c-0.151,0 -0.226,-0.076 -0.226,-0.227l0,-8.845c0,-0.076 0,-0.076 -0.076,-0.076l-0.756,0c-0.151,0 -0.227,-0.075 -0.227,-0.227l0,-0.982c0,-0.152 0.076,-0.227 0.227,-0.227l0.756,0c0.076,0 0.076,0 0.076,-0.076l0,-0.529c0,-1.21 0.226,-2.117 0.756,-2.646c0.529,-0.529 1.36,-0.756 2.494,-0.756l0.303,0c0.151,0 0.227,0.076 0.227,0.227l-0.076,1.285c0,0.151 -0.076,0.227 -0.227,0.227l-0.227,0c-0.453,0 -0.756,0.151 -0.982,0.453c-0.227,0.303 -0.303,0.756 -0.303,1.361l0,0.378Z" style="fill:#f4cc8b;"/><path d="M13.835,13.759c-0.605,-0.605 -0.907,-1.361 -0.907,-2.419l0,-4.234c0,-0.982 0.302,-1.738 0.907,-2.343c0.605,-0.605 1.436,-0.907 2.495,-0.907c0.68,0 1.285,0.151 1.814,0.378c0.529,0.302 0.907,0.604 1.21,1.058c0.302,0.454 0.453,0.983 0.453,1.588l0,0.302c0,0.151 -0.075,0.227 -0.226,0.227l-1.588,0.075c-0.151,0 -0.227,-0.075 -0.227,-0.226l0,-0.227c0,-0.378 -0.151,-0.756 -0.453,-1.059c-0.303,-0.302 -0.681,-0.453 -1.059,-0.453c-0.453,0 -0.832,0.151 -1.058,0.453c-0.303,0.303 -0.378,0.756 -0.378,1.21l0,4.007c0,0.529 0.151,0.907 0.378,1.209c0.302,0.303 0.605,0.454 1.058,0.454c0.454,0 0.756,-0.151 1.059,-0.454c0.302,-0.302 0.453,-0.604 0.453,-1.058l0,-0.227c0,-0.151 0.076,-0.227 0.227,-0.227l1.588,0c0.151,0 0.226,0.076 0.226,0.227l0,0.303c0,0.907 -0.302,1.587 -0.907,2.192c-0.605,0.605 -1.436,0.832 -2.495,0.832c-1.058,0 -1.965,-0.076 -2.57,-0.681Z" style="fill:#f4cc8b;"/></g><g><path d="M24.117,14.288l-2.193,-9.979c0,-0.151 0.076,-0.151 0.151,-0.151l0.983,0c0.151,0 0.227,0.076 0.227,0.151l1.512,8.014c0,0 0,0.075 0.076,0.075l0.075,-0.075l1.512,-8.014c0,-0.151 0.076,-0.151 0.227,-0.151l0.907,0c0.151,0 0.227,0.076 0.227,0.151l1.512,8.014c0,0 0,0.075 0.076,0.075l0.075,-0.075l1.512,-8.014c0,-0.151 0.076,-0.151 0.227,-0.151l0.983,0c0.151,0 0.227,0.076 0.151,0.227l-2.192,9.979c0,0.151 -0.076,0.151 -0.227,0.151l-1.059,0c-0.151,0 -0.226,-0.075 -0.226,-0.151l-1.512,-7.56c0,-0.076 0,-0.076 -0.076,-0.076l-0.076,0.076l-1.512,7.56c0,0.151 -0.075,0.151 -0.226,0.151l-0.983,0c-0.076,0 -0.151,-0.075 -0.151,-0.227Z" style="fill:#f4cc8b;"/><path d="M34.398,9.828c-0.075,0 -0.075,0 -0.075,0.076l0,1.512c0,0.604 0.151,1.058 0.453,1.436c0.303,0.378 0.756,0.529 1.285,0.529c0.454,0 0.832,-0.151 1.134,-0.378c0.303,-0.227 0.53,-0.605 0.605,-1.058c0.076,-0.151 0.151,-0.151 0.227,-0.151l1.058,0.075c0.076,0 0.076,0 0.152,0.076c0.075,0.075 0.075,0.075 0.075,0.151c-0.075,0.832 -0.453,1.436 -0.983,1.89c-0.529,0.454 -1.285,0.68 -2.192,0.68c-0.983,0 -1.739,-0.302 -2.344,-0.831c-0.604,-0.605 -0.907,-1.361 -0.907,-2.268l0,-4.461c0,-0.907 0.303,-1.663 0.907,-2.268c0.605,-0.604 1.361,-0.907 2.344,-0.907c0.983,0 1.739,0.303 2.344,0.907c0.604,0.605 0.907,1.361 0.907,2.268l0,2.571c-0.076,0.075 -0.151,0.151 -0.303,0.151l-4.687,0Zm0.378,-4.082c-0.302,0.378 -0.453,0.831 -0.453,1.436l0,1.361c0,0.075 0,0.075 0.075,0.075l3.402,0c0.076,0 0.076,0 0.076,-0.075l0,-1.361c0,-0.605 -0.151,-1.058 -0.529,-1.436c-0.303,-0.378 -0.756,-0.53 -1.286,-0.53c-0.529,0 -0.907,0.152 -1.285,0.53Z" style="fill:#f4cc8b;"/><path d="M41.883,14.591l-1.059,0c-0.151,0 -0.227,-0.076 -0.227,-0.227l0,-14.062c0,-0.151 0.076,-0.226 0.227,-0.226l1.059,0c0.151,0 0.226,0.075 0.226,0.226l0,4.612l0.076,0c0.454,-0.68 1.134,-0.983 2.041,-0.983c0.832,0 1.512,0.303 1.966,0.832c0.529,0.605 0.756,1.285 0.756,2.192c0.075,0.529 0.075,1.285 0.075,2.268l0,2.268c-0.075,0.907 -0.302,1.663 -0.831,2.268c-0.529,0.605 -1.134,0.907 -1.966,0.907c-0.453,0 -0.831,-0.075 -1.134,-0.226c-0.302,-0.152 -0.605,-0.454 -0.907,-0.756l-0.076,0l0,0.68c0,0.151 -0.075,0.227 -0.226,0.227Zm3.175,-1.815c0.302,-0.378 0.453,-0.907 0.453,-1.512l0,-4.082c0,-0.605 -0.151,-1.134 -0.453,-1.512c-0.303,-0.378 -0.756,-0.529 -1.285,-0.529c-0.53,0 -0.908,0.151 -1.21,0.529c-0.302,0.378 -0.454,0.907 -0.454,1.512l0,4.158c0,0.605 0.152,1.134 0.454,1.512c0.302,0.378 0.756,0.529 1.21,0.529c0.529,0 0.982,-0.227 1.285,-0.605Z" style="fill:#f4cc8b;"/></g><g><path d="M54.584,6.955c0,-0.907 0.302,-1.663 0.756,-2.192c0.529,-0.605 1.134,-0.832 1.965,-0.832c0.907,0 1.588,0.303 2.041,0.983l0.076,0l0,-4.612c0.151,-0.151 0.151,-0.226 0.302,-0.226l1.059,0c0.151,0 0.227,0.075 0.227,0.226l0,13.986c0,0.152 -0.076,0.227 -0.227,0.227l-1.059,0c-0.151,0 -0.226,-0.075 -0.226,-0.227l0,-0.68l-0.076,0c-0.227,0.303 -0.529,0.605 -0.907,0.756c-0.378,0.151 -0.756,0.227 -1.134,0.227c-0.832,0 -1.437,-0.303 -1.966,-0.907c-0.529,-0.605 -0.756,-1.361 -0.831,-2.268l0,-4.461Zm4.46,5.897c0.302,-0.378 0.454,-0.907 0.454,-1.512l0,-4.082c0,-0.605 -0.152,-1.134 -0.454,-1.512c-0.302,-0.378 -0.756,-0.53 -1.21,-0.53c-0.529,0 -0.982,0.152 -1.285,0.53c-0.302,0.378 -0.453,0.907 -0.453,1.512l0,4.082c0,0.605 0.151,1.058 0.453,1.512c0.303,0.378 0.756,0.605 1.285,0.605c0.53,-0.076 0.908,-0.227 1.21,-0.605Z" style="fill:#f4cc8b;"/><path d="M64.034,9.828c-0.076,0 -0.076,0 -0.076,0.076l0,1.512c0,0.604 0.151,1.058 0.454,1.436c0.302,0.378 0.756,0.529 1.285,0.529c0.453,0 0.831,-0.151 1.134,-0.378c0.302,-0.227 0.529,-0.605 0.605,-1.058c0.075,-0.151 0.151,-0.151 0.226,-0.151l1.059,0.075c0.075,0 0.075,0 0.151,0.076c0.076,0.075 0.076,0.075 0.076,0.151c-0.076,0.832 -0.454,1.436 -0.983,1.89c-0.529,0.454 -1.285,0.68 -2.193,0.68c-0.982,0 -1.738,-0.302 -2.343,-0.831c-0.605,-0.605 -0.907,-1.361 -0.907,-2.268l0,-4.461c0,-0.907 0.302,-1.663 0.907,-2.268c0.605,-0.604 1.361,-0.907 2.343,-0.907c0.983,0 1.739,0.303 2.344,0.907c0.605,0.605 0.907,1.361 0.907,2.268l0,2.571c-0.151,0.075 -0.227,0.151 -0.302,0.151l-4.687,0Zm0.378,-4.082c-0.303,0.378 -0.454,0.831 -0.454,1.436l0,1.361c0,0.075 0,0.075 0.076,0.075l3.402,0c0.075,0 0.075,0 0.075,-0.075l0,-1.361c0,-0.605 -0.151,-1.058 -0.529,-1.436c-0.302,-0.378 -0.756,-0.53 -1.285,-0.53c-0.529,0 -0.983,0.152 -1.285,0.53Z" style="fill:#f4cc8b;"/><path d="M70.686,13.835c-0.604,-0.454 -0.831,-1.134 -0.831,-1.966l0,-0.151c0,-0.151 0.075,-0.227 0.227,-0.227l0.982,0c0.152,0 0.227,0.076 0.227,0.151l0,0.152c0,0.453 0.151,0.831 0.454,1.134c0.302,0.302 0.756,0.453 1.285,0.453c0.529,0 0.907,-0.151 1.21,-0.453c0.302,-0.303 0.453,-0.681 0.453,-1.134c0,-0.378 -0.075,-0.681 -0.302,-0.908c-0.227,-0.226 -0.378,-0.453 -0.681,-0.529c-0.226,-0.151 -0.604,-0.302 -1.134,-0.529c-0.529,-0.227 -0.982,-0.454 -1.36,-0.68c-0.378,-0.227 -0.681,-0.53 -0.908,-0.908c-0.226,-0.378 -0.378,-0.907 -0.378,-1.512c0,-0.907 0.303,-1.587 0.832,-2.041c0.529,-0.529 1.285,-0.756 2.192,-0.756c0.908,0 1.664,0.227 2.193,0.756c0.529,0.529 0.831,1.21 0.831,2.041l0,0.076c0,0.151 -0.075,0.227 -0.226,0.227l-0.983,0c-0.151,0 -0.227,-0.076 -0.227,-0.151l0,-0.076c0,-0.454 -0.151,-0.832 -0.454,-1.134c-0.302,-0.302 -0.68,-0.454 -1.209,-0.454c-0.529,0 -0.907,0.152 -1.21,0.454c-0.302,0.302 -0.453,0.68 -0.453,1.134c0,0.302 0.075,0.605 0.302,0.832c0.151,0.226 0.378,0.378 0.68,0.529c0.227,0.151 0.605,0.302 1.059,0.529c0.529,0.227 1.058,0.454 1.361,0.68c0.302,0.227 0.68,0.53 0.982,0.908c0.303,0.378 0.378,0.907 0.378,1.512c0,0.831 -0.302,1.512 -0.831,2.041c-0.529,0.529 -1.285,0.756 -2.268,0.756c-0.907,0 -1.663,-0.227 -2.193,-0.756Z" style="fill:#f4cc8b;"/><path d="M77.188,1.966c-0.227,-0.227 -0.302,-0.454 -0.302,-0.756c0,-0.303 0.075,-0.53 0.302,-0.756c0.227,-0.227 0.454,-0.303 0.756,-0.303c0.302,0 0.529,0.076 0.68,0.303c0.152,0.226 0.303,0.453 0.303,0.756c0,0.302 -0.076,0.604 -0.303,0.756c-0.151,0.226 -0.453,0.302 -0.68,0.302c-0.302,0 -0.529,-0.151 -0.756,-0.302Z" style="fill:#f4cc8b;"/><path d="M77.188,14.288l0,-9.979c0,-0.151 0.076,-0.227 0.227,-0.227l1.058,0c0.151,0 0.227,0.076 0.227,0.227l0,9.979c0,0.152 -0.076,0.227 -0.227,0.227l-1.058,0c-0.151,0 -0.227,-0.075 -0.227,-0.227Z" style="fill:#f4cc8b;"/><path d="M85.126,13.457c-0.227,0.378 -0.529,0.605 -0.907,0.756c-0.378,0.151 -0.756,0.302 -1.134,0.302c-0.832,0 -1.512,-0.302 -2.041,-0.831c-0.529,-0.605 -0.756,-1.361 -0.756,-2.268l0,-4.31c0,-0.982 0.227,-1.738 0.756,-2.268c0.529,-0.604 1.209,-0.831 2.041,-0.831c0.378,0 0.832,0.075 1.134,0.227c0.302,0.151 0.68,0.453 0.907,0.756c0,0.075 0.076,0.075 0.076,0.075l0,-0.756c-0.076,-0.151 0,-0.227 0.151,-0.227l1.058,0c0.152,0 0.227,0.076 0.227,0.227l0,9.979c0,1.437 -0.302,2.571 -0.983,3.327c-0.68,0.756 -1.814,1.134 -3.402,1.058c-0.151,0 -0.226,-0.075 -0.226,-0.226l0,-0.908c0,-0.151 0.075,-0.226 0.226,-0.226c1.059,0 1.89,-0.227 2.268,-0.756c0.454,-0.53 0.681,-1.361 0.681,-2.42l0,-0.68l-0.076,0Zm-0.453,-0.756c0.302,-0.378 0.453,-0.832 0.453,-1.437l0,-4.082c0,-0.605 -0.151,-1.058 -0.453,-1.436c-0.303,-0.378 -0.756,-0.53 -1.21,-0.53c-0.529,0 -0.983,0.152 -1.285,0.53c-0.303,0.378 -0.529,0.831 -0.529,1.436l0,4.158c0,0.605 0.151,1.058 0.529,1.436c0.302,0.378 0.756,0.53 1.285,0.53c0.454,0 0.907,-0.227 1.21,-0.605Z" style="fill:#f4cc8b;"/><path d="M93.745,4.838c0.453,0.605 0.68,1.361 0.68,2.42l0,7.106c0,0.151 -0.076,0.227 -0.227,0.227l-1.058,0c-0.151,0 -0.227,-0.076 -0.227,-0.227l0,-7.031c0,-0.68 -0.151,-1.209 -0.454,-1.587c-0.302,-0.378 -0.68,-0.53 -1.209,-0.53c-0.529,0 -0.983,0.227 -1.285,0.605c-0.303,0.378 -0.454,0.907 -0.454,1.588l0,6.879c0,0.152 -0.076,0.227 -0.227,0.227l-1.058,0c-0.151,0 -0.227,-0.075 -0.227,-0.227l0,-9.979c0,-0.151 0.076,-0.227 0.227,-0.227l1.058,0c0.151,0 0.227,0.076 0.227,0.227l0,0.681c0,0 0,0.075 0.076,0.075l0.075,0c0.529,-0.68 1.21,-1.058 2.117,-1.058c0.832,-0.076 1.512,0.227 1.966,0.831Z" style="fill:#f4cc8b;"/></g><path d="M50.652,12.02l-1.89,-1.814c0,0 -0.68,-0.605 -0.68,-1.361c0,-0.907 0.529,-1.436 1.436,-1.436c0.53,0 0.983,0.378 1.286,0.68c0.226,-0.227 0.756,-0.68 1.285,-0.68c0.907,0 1.436,0.529 1.436,1.436c0,0.756 -0.68,1.361 -0.68,1.361l-1.89,1.814c0,0 -0.076,0.076 -0.151,0.076c-0.076,0 -0.076,-0.076 -0.152,-0.076Z" style="fill:#e96576;fill-rule:nonzero;"/></g></svg>