<svg viewBox="0 0 1124 553" xmlns="http://www.w3.org/2000/svg" fill-rule="evenodd" clip-rule="evenodd" stroke-linecap="round" stroke-linejoin="round" stroke-miterlimit="20">

	
<path d="M87.736 303.286s95.725-128.323 255.263-78c159.538 50.323 245.204 173.337 434 179C965.794 409.949 1120.49 274.585 1120 280.063" fill="none" stroke="#e96576" stroke-width="4" stroke-dasharray="16,16,0,0"/>

<path d="M47.003 355.738c2.319 1.727 7.08-1.037 9.669-4.516l4.316-5.798 21.755 1.946c.33.049.69-.133.911-.392l3.453-4.638c.188-.254.232-.615.159-.895a1.122 1.122 0 0 0-.649-.68L69.269 334.3l6.987-9.386 6.377.777c.068.022.163.008.258-.006.252-.037.523-.173.685-.391l2.585-3.51c.157-.249.242-.552.168-.832-.073-.28-.241-.546-.517-.666l-8.84-4.807-7.141-7.089c-.226-.226-.498-.315-.818-.3l-.063.009a1.07 1.07 0 0 0-.686.391l-2.589 3.479c-.212.321-.255.683-.11 1.017l2.574 5.886-6.987 9.385-11.17-14.764c-.168-.266-.444-.387-.738-.408a.6.6 0 0 0-.226.001.986.986 0 0 0-.573.277l-3.601 3.627c-.279.299-.377.734-.226 1.099l8.28 21.257-4.343 5.834c-2.59 3.479-3.871 8.832-1.552 10.558z" fill="#282828" /></svg>