<?xml version="1.0" encoding="UTF-8" standalone="no"?>
<!DOCTYPE svg PUBLIC "-//W3C//DTD SVG 1.1//EN" "http://www.w3.org/Graphics/SVG/1.1/DTD/svg11.dtd">
<svg width="100%" height="100%" viewBox="0 0 640 250" version="1.1" xmlns="http://www.w3.org/2000/svg" xmlns:xlink="http://www.w3.org/1999/xlink" xml:space="preserve" xmlns:serif="http://www.serif.com/" style="fill-rule:evenodd;clip-rule:evenodd;stroke-linecap:round;stroke-linejoin:round;stroke-miterlimit:20;">
    <rect x="0" y="0" width="639.5" height="249.627" style="fill:none;"/>
    <g>
        <clipPath id="_clip1">
            <rect x="0" y="0" width="639.5" height="249.627"/>
        </clipPath>
        <g clip-path="url(#_clip1)">
            <path d="M81.422,47.358L57.543,27.827" style="fill:none;stroke:rgb(198,131,76);stroke-width:5.12px;"/>
            <path d="M101.942,37.542L86.999,11.265" style="fill:none;stroke:rgb(198,131,76);stroke-width:5.11px;"/>
            <path d="M73.265,67.44L43,62.767" style="fill:none;stroke:rgb(198,131,76);stroke-width:5.11px;"/>
            <path d="M591.371,203.774L620.737,213.223" style="fill:none;stroke:rgb(198,131,76);stroke-width:5.12px;"/>
            <path d="M575.861,220.408L599.376,239.403" style="fill:none;stroke:rgb(198,131,76);stroke-width:5.11px;"/>
            <path d="M591.62,182.096L621.498,175.381" style="fill:none;stroke:rgb(198,131,76);stroke-width:5.11px;"/>
            <path d="M95.9,147.717C97.756,165.642 98.286,180.13 100.938,194.127C104.916,217.454 116.32,226.54 138.862,225.313C150.796,224.821 161.669,221.875 168.83,212.298C177.582,200.758 177.317,187.498 174.93,174.238C174.134,168.835 165.47,156.311 159.635,157.048C154.332,157.784 153.448,171.781 153.714,177.428C153.714,180.866 153.714,184.55 153.979,188.233C154.509,204.441 144.432,205.667 131.436,204.441C128.784,204.194 125.336,201.002 124.541,198.547C122.419,193.39 121.094,187.742 120.828,182.095C120.032,167.606 119.502,153.365 119.502,138.877C119.502,122.669 118.707,106.217 125.072,90.748C127.458,84.854 141.779,81.908 146.818,86.082C153.448,91.484 144.46,87.801 144.725,95.413C144.99,101.552 159.548,116.531 165.648,116.776C171.747,117.022 176.52,112.847 176.786,106.709C177.052,103.025 176.786,99.587 176.256,96.149C173.604,82.399 166.973,70.612 151.857,65.455C129.315,57.843 105.712,70.121 101.468,92.713C98.021,111.866 97.49,131.51 95.899,147.717L95.9,147.717Z" style="fill:rgb(253,232,197);"/>
            <path d="M85.585,135.26C87.441,153.185 87.972,167.674 90.623,181.67C94.602,204.997 106.006,214.083 128.547,212.856C140.481,212.364 151.355,209.418 158.515,199.842C167.267,188.301 167.002,175.041 164.615,161.78C163.819,156.378 158.25,153.43 152.415,154.168C147.111,154.904 143.133,159.324 143.399,164.972C143.399,168.41 143.399,172.093 143.664,175.777C144.194,191.984 134.117,193.211 121.122,191.984C118.47,191.737 115.022,188.546 114.226,186.091C112.105,180.934 110.779,175.286 110.513,169.638C109.718,155.15 109.188,140.908 109.188,126.42C109.188,110.213 108.392,93.761 114.757,78.292C117.143,72.397 131.464,69.452 136.504,73.625C143.134,79.028 144.46,86.149 144.724,93.761C144.99,99.9 149.234,104.074 155.334,104.32C161.432,104.565 166.206,100.39 166.471,94.252C166.737,90.569 166.471,87.131 165.941,83.692C163.289,69.942 156.659,58.156 141.543,52.998C119,45.386 95.397,57.665 91.153,80.256C87.706,99.409 87.175,119.053 85.585,135.26Z" style="fill:rgb(39,39,39);"/>
            <path d="M154.942,88.513C154.942,88.513 152.753,58.301 126.713,61.453C100.674,64.605 97.53,85.567 97.765,93.812M97.78,166.412C97.78,166.412 96.087,206.311 129.535,203.311C149.375,201.532 153.989,193.599 154.942,181.992C155.895,170.384 154.942,166.412 154.942,166.412" style="fill:none;stroke:rgb(253,232,197);stroke-width:3px;stroke-miterlimit:1.5;"/>
            <path d="M270.824,221.89C264.024,221.852 250.819,212.832 249.503,207.228C248.111,200.568 255.837,200.513 254.559,193.906L253.464,188.242C252.187,181.635 250.895,175.021 249.503,168.36C246.851,155.346 243.934,142.577 240.752,129.562C237.304,113.602 233.326,97.64 229.612,81.679C228.552,77.013 227.757,72.102 226.696,67.928C226.696,62.035 224.044,49.315 229.613,48.578C235.183,47.842 247.382,59.578 248.708,64.981C251.095,75.049 252.951,85.116 255.338,95.184C255.603,96.167 257.459,97.64 258.521,97.64C267.271,97.885 276.023,97.885 284.776,97.885C285.571,97.885 286.896,96.903 286.896,96.167C289.018,86.344 291.14,76.767 293.262,67.191C294.588,60.07 289.162,47.351 295.792,48.579C302.422,49.561 316.865,63.753 315.274,70.629C310.765,89.046 305.991,107.462 302.014,125.879C297.24,147.979 293.262,170.079 288.754,192.179C287.427,199.3 285.571,206.421 283.98,213.543C282.388,219.436 278.41,221.891 270.985,221.891L270.824,221.891L270.824,221.89ZM270.793,163.536C271.547,161.929 272.046,161.223 272.046,160.748C273.135,155.616 274.229,150.485 275.327,145.355L277.515,135.132C278.613,130.002 279.707,124.872 280.797,119.74C280.797,119.25 279.471,118.02 278.676,118.02C273.371,118.02 268.068,118.267 262.763,118.512C262.498,118.512 261.703,119.986 261.968,120.477C262.763,126.37 263.824,132.263 264.885,137.911C266.741,146.261 268.598,154.363 270.72,163.694L270.793,163.536Z" style="fill:rgb(253,232,197);"/>
            <path d="M261.417,213.691C254.617,213.653 250.429,211.191 249.114,205.588C247.721,198.928 246.43,192.313 245.152,185.706L244.057,180.042C242.78,173.435 241.488,166.821 240.096,160.16C237.444,147.146 234.527,134.377 231.345,121.362C227.897,105.402 223.919,89.44 220.205,73.479C219.145,68.813 218.35,63.903 217.289,59.728C217.289,53.835 221.532,49.414 227.101,48.678C232.671,47.941 237.975,51.378 239.301,56.781C241.688,66.849 243.544,76.917 245.931,86.984C246.196,87.967 248.052,89.44 249.114,89.44C257.864,89.685 266.616,89.685 275.369,89.685C276.164,89.685 277.489,88.703 277.489,87.967C279.611,78.144 281.733,68.567 283.855,58.991C285.181,51.871 290.485,47.696 297.115,48.923C303.745,49.905 307.458,55.553 305.867,62.429C301.358,80.846 296.584,99.262 292.607,117.679C287.833,139.779 283.855,161.879 279.347,183.979C278.02,191.1 276.164,198.221 274.573,205.343C272.981,211.236 269.003,213.691 261.578,213.691L261.417,213.691ZM261.386,155.336C262.14,153.73 262.639,153.024 262.639,152.548C263.728,147.416 264.822,142.285 265.92,137.155L268.108,126.932C269.206,121.802 270.3,116.672 271.39,111.54C271.39,111.05 270.064,109.821 269.269,109.821C263.964,109.821 258.661,110.067 253.356,110.312C253.091,110.312 252.296,111.786 252.561,112.277C253.356,118.17 254.417,124.063 255.478,129.711C257.334,138.061 259.191,146.164 261.313,155.494L261.386,155.336Z" style="fill:rgb(39,39,39);"/>
            <path d="M295.793,58.959L287.327,89.958M271.216,166.41C271.216,166.41 265.281,199.7 263.809,201.047C262.337,202.395 255.827,181.826 253.521,172.377M240.173,107.078L226.181,58.959" style="fill:none;stroke:rgb(253,232,197);stroke-width:3px;stroke-miterlimit:1.5;"/>
            <g>
                <path d="M366.936,164.66C367.996,173.745 361.858,183.813 363.449,197.073C370.229,212.152 385.5,223.347 394.517,225.312C413.611,229.24 436.949,218.927 443.579,201.984C446.762,193.635 447.823,184.55 448.353,175.709C448.884,164.169 448.088,152.873 448.088,141.331C447.823,128.563 448.884,115.794 447.823,103.025C446.762,88.291 439.336,66.575 422.893,58.963C402.208,49.141 384.174,63.245 374.893,80.188C371.444,86.573 369.587,94.185 369.058,101.551C367.731,121.196 367.731,140.841 366.936,164.659L366.936,164.66ZM390.008,162.204C390.274,154.101 390.804,145.752 390.804,137.649L390.804,104.499C390.804,100.324 392.13,96.149 393.191,91.975C394.782,86.819 401.412,82.153 406.451,82.398C414.673,82.398 422.098,85.836 422.893,91.975C425.016,104.007 426.341,116.04 426.606,128.071C427.136,143.051 426.341,158.275 426.076,173.254C426.076,177.92 426.076,182.831 425.546,187.497C424.485,197.564 413.346,206.159 402.473,205.667C397.169,205.177 393.191,201.984 392.661,197.073C391.6,187.497 389.743,177.429 390.008,167.853L390.008,162.204Z" style="fill:rgb(253,232,197);"/>
                <path d="M356.62,152.203C357.682,161.288 358.743,174.548 360.334,187.808C362.191,202.297 375.186,210.891 384.202,212.856C403.297,216.784 426.635,206.471 433.265,189.528C436.447,181.178 437.508,172.093 438.039,163.253C438.569,151.712 437.773,140.416 437.773,128.875C437.508,116.106 438.569,103.337 437.508,90.569C436.447,75.835 432.999,61.593 416.557,53.981C395.872,44.158 373.859,50.789 364.577,67.731C361.13,74.116 359.274,81.728 358.743,89.095C357.417,108.739 357.417,128.384 356.621,152.203L356.62,152.203ZM379.694,149.748C379.959,141.644 380.489,133.296 380.489,125.192L380.489,92.042C380.489,87.867 381.816,83.692 382.877,79.518C384.467,74.362 391.097,69.697 396.137,69.942C404.357,69.942 411.784,73.38 412.579,79.518C414.701,91.551 416.027,103.583 416.291,115.615C416.822,130.595 416.027,145.818 415.761,160.798C415.761,165.463 415.761,170.374 415.231,175.039C414.171,185.107 403.031,193.702 392.159,193.211C386.854,192.72 382.877,189.528 382.346,184.616C381.286,175.039 379.429,164.972 379.694,155.395L379.694,149.748Z" style="fill:rgb(39,39,39);"/>
                <path d="M366.834,94.272C366.834,94.272 364.482,60.541 396.114,61.174C427.747,61.805 425.521,75.586 426.158,94.272M427.158,166.412C427.158,166.412 429.202,200.765 399.877,203.311C370.553,205.857 367.753,186.113 366.795,166.412" style="fill:none;stroke:rgb(253,232,197);stroke-width:3px;stroke-miterlimit:1.5;"/>
            </g>
            <g>
                <path d="M524.468,99.097L524.468,95.413C524.733,88.537 531.628,83.136 540.91,82.398C547.54,81.662 545.419,78.96 547.54,86.082C549.662,92.712 561.861,102.289 568.226,100.57C574.06,99.342 577.774,93.449 575.917,87.065C571.408,70.857 555.497,59.316 537.197,62.262C523.141,64.473 511.737,70.122 506.169,82.153C497.947,100.325 502.721,117.759 514.124,132.983C521.816,143.051 531.363,151.891 539.849,161.223C547.01,169.08 553.906,176.938 555.496,187.497C556.558,194.127 553.374,201.247 547.54,203.703C536.137,208.369 523.141,207.141 521.02,191.426C520.754,190.198 520.754,189.216 520.49,188.233C519.164,182.34 514.39,178.902 508.555,179.639C502.986,180.13 491.523,181.849 492.053,187.497C493.379,202.477 505.903,217.454 522.346,223.839C538.258,229.978 565.84,223.349 573.266,206.896C580.956,190.198 577.243,174.728 567.166,160.977C557.618,148.207 546.479,136.421 535.076,124.88C527.65,117.268 525.263,108.673 524.468,99.097Z" style="fill:rgb(253,232,197);"/>
                <path d="M514.153,86.64L514.153,82.957C514.418,76.081 521.313,70.679 530.596,69.942C537.226,69.206 542.265,72.644 544.386,79.764C546.508,86.394 551.546,89.833 557.912,88.114C563.746,86.885 567.459,80.992 565.602,74.608C561.094,58.401 545.182,46.86 526.882,49.806C512.827,52.016 501.422,57.665 495.854,69.696C487.632,87.868 492.407,105.302 503.81,120.526C511.501,130.594 521.048,139.435 529.534,148.766C536.696,156.623 543.591,164.481 545.182,175.041C546.242,181.67 543.06,188.791 537.226,191.247C525.822,195.913 512.826,194.685 510.705,178.969C510.44,177.741 510.44,176.759 510.175,175.777C508.849,169.883 504.075,166.445 498.241,167.183C492.671,167.673 488.428,172.093 488.959,177.741C490.285,192.721 495.589,204.997 512.031,211.383C527.944,217.521 555.525,210.892 562.951,194.439C570.641,177.741 566.929,162.271 556.851,148.52C547.303,135.751 536.164,123.965 524.761,112.424C517.335,104.812 514.948,96.217 514.153,86.64Z" style="fill:rgb(39,39,39);"/>
                <path d="M554.152,77.033C554.152,77.033 542.355,52.519 521.984,61.166C496.085,72.16 503.39,89.024 502.354,94.219M558.152,169.312C558.152,169.312 564.639,188.044 548.508,198.391C532.377,208.739 518.098,204.765 508.998,198.391C499.899,192.018 499.776,176.98 499.591,177.004" style="fill:none;stroke:rgb(253,232,197);stroke-width:3px;stroke-miterlimit:1.5;"/>
            </g>
            <g>
                <path d="M126.587,131.838C127.471,132.158 128.107,132.638 128.493,133.278C128.88,133.917 128.853,134.556 128.41,135.196L128.244,135.556C126.568,138.316 124.827,141.035 123.022,143.712C121.079,146.601 118.859,149.292 116.391,151.748C113.961,154.184 111.198,156.264 108.184,157.925C105.2,159.565 101.829,160.385 98.071,160.385L97.905,160.385C95.695,160.385 93.815,160.065 92.268,159.425C90.721,158.785 89.45,157.945 88.455,156.905C87.571,155.946 86.963,154.907 86.632,153.787C86.299,152.658 86.131,151.486 86.134,150.309L86.134,150.189C83.261,153.148 80.083,155.567 76.601,157.446C73.12,159.325 69.279,160.224 65.079,160.144C60.437,160.064 57.011,158.705 54.8,156.066C53.602,154.897 52.743,153.426 52.313,151.808C51.871,150.169 51.706,148.39 51.816,146.471C51.816,144.791 52.148,142.753 52.811,140.354C53.474,137.954 54.358,135.396 55.463,132.677C56.569,129.959 57.95,127.2 59.608,124.401C61.242,121.636 63.071,118.991 65.079,116.485C68.174,112.807 71.655,109.728 75.524,107.249C79.392,104.771 83.703,103.491 88.455,103.411L89.947,103.411C92.157,103.571 94.23,104.011 96.164,104.731C98.099,105.451 99.839,106.41 101.387,107.609C102.16,108.329 102.879,109.129 103.542,110.009C104.095,108.969 104.592,108.009 105.034,107.129C105.476,106.249 105.918,105.41 106.36,104.611C106.692,103.971 107.3,103.511 108.184,103.231C109.068,102.951 109.952,102.931 110.837,103.171C111.721,103.411 112.357,103.851 112.743,104.491C113.13,105.131 113.158,105.771 112.826,106.41C111.658,108.719 110.47,111.018 109.262,113.307C107.663,116.353 106.088,119.411 104.537,122.482C103.469,124.646 102.391,126.805 101.304,128.959C100.359,130.822 99.447,132.701 98.568,134.596C96.8,138.115 95.528,141.153 94.755,143.712C94.203,145.072 93.788,146.271 93.512,147.31C93.235,148.35 93.097,149.27 93.097,150.07L93.097,150.309C93.097,151.029 93.18,151.729 93.346,152.408C93.512,153.088 93.816,153.668 94.258,154.148C95.031,154.947 96.303,155.347 98.071,155.347C100.613,155.347 103.017,154.627 105.283,153.187C107.549,151.748 109.676,149.949 111.666,147.79C113.697,145.578 115.553,143.212 117.219,140.714C118.805,138.357 120.325,135.957 121.779,133.517L121.944,133.157C122.387,132.517 123.05,132.057 123.934,131.777C124.8,131.497 125.735,131.518 126.587,131.837L126.587,131.838ZM65.245,155.107C68.561,155.187 71.683,154.247 74.612,152.288C77.541,150.329 80.249,147.85 82.736,144.852C85.222,141.853 87.488,138.575 89.533,135.016C91.421,131.738 93.272,128.44 95.087,125.121C95.815,123.923 96.506,122.703 97.159,121.463C97.718,120.392 98.298,119.332 98.899,118.284C99.01,118.044 99.066,117.764 99.066,117.444C98.845,114.566 97.85,112.407 96.081,110.968C94.203,109.528 91.992,108.728 89.45,108.568C89.229,108.488 88.897,108.448 88.455,108.448C85.25,108.528 82.183,109.568 79.254,111.568C76.325,113.566 73.59,116.085 71.047,119.124C69.177,121.43 67.487,123.876 65.991,126.44C64.561,128.876 63.287,131.4 62.178,133.997C61.128,136.476 60.298,138.814 59.691,141.013C59.083,143.213 58.779,145.072 58.779,146.591C58.779,149.629 59.387,151.868 60.603,153.308C61.598,154.428 63.145,155.027 65.245,155.107Z" style="fill:rgb(253,232,197);fill-rule:nonzero;"/>
                <path d="M187.597,131.838C188.481,132.158 189.117,132.638 189.503,133.278C189.89,133.917 189.863,134.556 189.42,135.196L189.254,135.556C187.578,138.316 185.837,141.035 184.032,143.712C182.101,146.587 179.909,149.277 177.483,151.748C175.075,154.209 172.308,156.292 169.277,157.925C166.237,159.565 162.839,160.385 159.081,160.385L158.915,160.385C156.705,160.385 154.825,160.065 153.278,159.425C151.731,158.785 150.46,157.945 149.465,156.905C148.581,155.946 147.973,154.907 147.642,153.787C147.309,152.658 147.141,151.486 147.144,150.309L147.144,149.949C147.144,148.11 147.752,145.631 148.968,142.513C149.521,141.073 150.101,139.554 150.708,137.955C151.354,136.272 152.102,134.63 152.947,133.037C153.585,131.732 154.193,130.412 154.77,129.079C155.213,128.039 155.6,127.12 155.931,126.32C156.423,125.331 156.893,124.331 157.341,123.322C157.727,122.442 158.252,121.362 158.915,120.083L156.263,119.483C153.727,118.817 151.185,118.177 148.636,117.564C145.984,116.924 143.386,116.165 140.844,115.286C140.624,115.846 140.347,116.386 140.015,116.905C139.684,117.425 139.407,117.885 139.186,118.285L139.186,118.405L125.758,139.395C125.315,140.034 122.652,144.473 121.768,144.713C120.884,144.953 122,140.913 121.116,140.593C120.231,140.273 119.623,139.794 119.292,139.154C118.96,138.514 119.016,137.874 119.458,137.235L132.721,116.365L134.711,112.767C131.947,111.407 129.764,109.828 128.161,108.029C126.559,106.229 125.923,104.051 126.255,101.492C126.587,99.732 127.637,98.214 129.405,96.934C129.405,96.854 129.46,96.814 129.571,96.814C131.561,95.534 133.826,94.895 136.368,94.895C137.142,94.895 138.081,94.975 139.186,95.135L139.352,95.255C140.568,95.495 141.618,95.895 142.502,96.455C143.386,97.015 144.105,97.654 144.657,98.374C145.542,99.573 145.984,101.052 145.984,102.811C145.984,103.851 145.707,105.051 145.154,106.41C144.934,107.05 144.657,107.71 144.326,108.389C143.994,109.069 143.663,109.769 143.331,110.488C145.652,111.368 148.139,112.128 150.791,112.767C153.444,113.407 155.986,114.047 158.418,114.686C160.96,115.246 163.06,115.726 164.718,116.126C165.602,116.366 166.238,116.825 166.624,117.505C167.011,118.185 167.039,118.844 166.707,119.484L166.707,119.604C165.713,121.443 164.939,122.942 164.387,124.101C163.797,125.344 163.244,126.604 162.728,127.88C162.286,128.76 161.816,129.739 161.319,130.818L159.579,134.596C158.844,136.188 158.126,137.787 157.423,139.394C156.801,140.806 156.248,142.247 155.765,143.712C155.213,145.072 154.825,146.271 154.605,147.31C154.406,148.224 154.24,149.144 154.107,150.07L154.107,150.309C154.107,151.029 154.19,151.729 154.356,152.408C154.522,153.088 154.881,153.668 155.434,154.148C155.765,154.547 156.207,154.847 156.76,155.047C157.313,155.247 158.086,155.347 159.081,155.347C161.734,155.347 164.193,154.627 166.459,153.187C168.724,151.748 170.852,149.949 172.841,147.79C174.862,145.591 176.692,143.223 178.312,140.714C179.852,138.345 181.345,135.946 182.789,133.517L182.954,133.157C183.397,132.517 184.06,132.057 184.944,131.777C185.81,131.497 186.745,131.518 187.597,131.837L187.597,131.838ZM138.523,104.85C138.855,104.13 139.021,103.411 139.021,102.692C139.021,101.892 138.855,101.252 138.523,100.772C138.192,100.372 137.805,100.132 137.363,100.052L137.197,100.052C136.976,100.052 136.837,100.032 136.782,99.992C136.727,99.952 136.589,99.932 136.368,99.932C135.594,99.932 134.931,100.132 134.378,100.532L134.213,100.532C133.771,100.852 133.439,101.372 133.218,102.092C132.997,103.212 133.273,104.231 134.047,105.15C134.821,106.07 135.871,106.93 137.197,107.73L138.523,104.85Z" style="fill:rgb(253,232,197);fill-rule:nonzero;"/>
                <path d="M248.607,131.838C249.491,132.158 250.127,132.638 250.513,133.278C250.9,133.917 250.873,134.556 250.43,135.196L250.264,135.556C248.588,138.316 246.847,141.035 245.042,143.712C243.111,146.586 240.919,149.277 238.494,151.748C236.086,154.209 233.319,156.292 230.287,157.925C227.247,159.565 223.849,160.385 220.091,160.385L219.925,160.385C217.715,160.385 215.835,160.065 214.288,159.425C212.741,158.785 211.47,157.945 210.475,156.905C209.591,155.946 208.983,154.907 208.652,153.787C208.319,152.658 208.151,151.486 208.154,150.309L208.154,149.949C208.154,148.11 208.762,145.631 209.978,142.513C210.531,141.073 211.111,139.554 211.718,137.955C212.364,136.272 213.112,134.63 213.957,133.037C214.596,131.732 215.204,130.412 215.781,129.079C216.223,128.039 216.609,127.12 216.941,126.32C217.433,125.331 217.903,124.331 218.351,123.322C218.737,122.442 219.262,121.362 219.925,120.083L217.273,119.483C214.737,118.817 212.195,118.177 209.646,117.564C206.994,116.924 204.396,116.165 201.854,115.286C201.634,115.846 201.357,116.386 201.025,116.905C200.694,117.425 200.418,117.885 200.196,118.285L200.196,118.405L186.768,139.395C186.326,140.034 183.01,145.474 182.126,145.714C181.241,145.954 183.01,140.914 182.126,140.594C181.241,140.274 180.633,139.794 180.302,139.154C179.97,138.514 180.026,137.874 180.468,137.235L193.731,116.365L195.721,112.767C192.957,111.407 190.774,109.828 189.171,108.029C187.569,106.229 186.933,104.051 187.265,101.492C187.597,99.732 188.647,98.214 190.415,96.934C190.415,96.854 190.47,96.814 190.581,96.814C192.571,95.534 194.836,94.895 197.378,94.895C198.152,94.895 199.091,94.975 200.196,95.135L200.362,95.255C201.578,95.495 202.628,95.895 203.512,96.455C204.396,97.015 205.115,97.654 205.667,98.374C206.552,99.573 206.994,101.052 206.994,102.811C206.994,103.851 206.717,105.051 206.164,106.41C205.944,107.05 205.667,107.71 205.336,108.389C205.004,109.069 204.673,109.769 204.341,110.488C206.662,111.368 209.149,112.128 211.801,112.767C214.454,113.407 216.996,114.047 219.428,114.686C221.97,115.246 224.07,115.726 225.728,116.126C226.612,116.366 227.248,116.825 227.634,117.505C228.021,118.185 228.049,118.844 227.717,119.484L227.717,119.604C226.723,121.443 225.949,122.942 225.397,124.101C224.807,125.344 224.254,126.604 223.738,127.88C223.296,128.76 222.827,129.739 222.329,130.818L220.589,134.596C219.854,136.188 219.136,137.787 218.433,139.394C217.811,140.806 217.258,142.247 216.775,143.712C216.223,145.072 215.835,146.271 215.615,147.31C215.416,148.224 215.25,149.144 215.117,150.07L215.117,150.309C215.117,151.029 215.2,151.729 215.367,152.408C215.532,153.088 215.891,153.668 216.444,154.148C216.775,154.547 217.217,154.847 217.77,155.047C218.323,155.247 219.096,155.347 220.091,155.347C222.744,155.347 225.203,154.627 227.469,153.187C229.734,151.748 231.862,149.949 233.851,147.79C235.872,145.591 237.702,143.223 239.322,140.714C240.862,138.345 242.355,135.946 243.799,133.517L246.964,127.88C247.406,127.24 245.07,132.058 245.954,131.778C246.82,131.498 247.755,131.519 248.607,131.838ZM199.533,104.85C199.865,104.13 200.031,103.411 200.031,102.692C200.031,101.892 199.865,101.252 199.533,100.772C199.202,100.372 198.815,100.132 198.373,100.052L198.207,100.052C197.986,100.052 197.847,100.032 197.793,99.992C197.737,99.952 197.599,99.932 197.378,99.932C196.604,99.932 195.941,100.132 195.388,100.532L195.223,100.532C194.781,100.852 194.449,101.372 194.228,102.092C194.007,103.212 194.283,104.231 195.057,105.15C195.831,106.07 196.881,106.93 198.207,107.73L199.533,104.85Z" style="fill:rgb(253,232,197);fill-rule:nonzero;"/>
                <path d="M309.285,131.838C310.169,132.158 310.777,132.638 311.109,133.278C311.44,133.917 311.385,134.556 310.943,135.196L310.777,135.556C309.101,138.316 307.36,141.035 305.555,143.712C303.624,146.587 301.432,149.277 299.006,151.748C296.598,154.209 293.831,156.292 290.8,157.925C287.76,159.565 284.417,160.385 280.77,160.385L280.438,160.385C278.228,160.385 276.348,160.065 274.801,159.425C273.254,158.785 272.038,157.945 271.154,156.905C270.506,156.21 269.999,155.395 269.662,154.507C269.33,153.627 269.054,152.747 268.832,151.868C266.451,154.308 263.712,156.371 260.709,157.985C257.725,159.585 254.354,160.385 250.596,160.385L250.43,160.385C248.22,160.385 246.34,160.065 244.793,159.425C243.246,158.785 241.975,157.945 240.98,156.905C240.096,155.946 239.488,154.907 239.157,153.787C238.824,152.658 238.656,151.486 238.659,150.309L238.659,149.949C238.659,148.11 239.267,145.631 240.483,142.513C241.036,141.073 241.616,139.554 242.223,137.955C242.869,136.272 243.617,134.63 244.462,133.037C244.904,132.157 245.512,130.878 246.286,129.199C247.059,127.519 248.054,125.521 249.27,123.202C250.707,120.403 252.226,117.425 253.829,114.266C255.432,111.108 257.007,108.009 258.554,104.97C258.885,104.33 259.494,103.871 260.378,103.591C261.262,103.311 262.146,103.291 263.03,103.531C263.914,103.771 264.55,104.211 264.937,104.851C265.324,105.491 265.351,106.13 265.02,106.77C263.345,110.1 261.687,113.438 260.046,116.785C258.701,119.542 257.319,122.281 255.901,125.001C254.92,126.913 253.953,128.832 253,130.758C252.369,132.039 251.733,133.319 251.093,134.596C250.265,136.156 249.518,137.757 248.855,139.394C248.279,140.835 247.699,142.274 247.115,143.712C246.723,144.901 246.364,146.101 246.037,147.31C245.761,148.35 245.622,149.27 245.622,150.07L245.622,150.309C245.622,151.029 245.705,151.729 245.872,152.408C246.037,153.088 246.341,153.668 246.782,154.148C247.557,154.947 248.828,155.347 250.596,155.347C253.138,155.347 255.542,154.627 257.808,153.187C260.074,151.748 262.201,149.949 264.191,147.79C266.222,145.578 268.079,143.212 269.745,140.714C271.33,138.357 272.85,135.957 274.304,133.517L274.304,133.397C274.414,133.317 274.47,133.197 274.47,133.037C274.912,132.157 275.547,130.878 276.376,129.199C277.206,127.519 278.172,125.521 279.277,123.202C280.898,120.262 282.446,117.282 283.919,114.266C285.443,111.155 286.99,108.057 288.562,104.97C288.893,104.33 289.501,103.871 290.385,103.591C291.269,103.311 292.154,103.291 293.038,103.531C293.922,103.771 294.585,104.211 295.028,104.851C295.469,105.491 295.525,106.13 295.193,106.77C293.422,110.078 291.708,113.417 290.053,116.785C288.709,119.542 287.328,122.28 285.91,125C284.932,126.9 283.992,128.819 283.092,130.757C282.318,132.437 281.655,133.716 281.102,134.595L281.102,134.715C281.1,134.802 281.071,134.885 281.019,134.955C280.967,135.025 280.938,135.108 280.936,135.195C280.207,136.697 279.516,138.216 278.864,139.753C278.309,141.06 277.783,142.38 277.289,143.711C276.294,146.35 275.797,148.469 275.797,150.068L275.797,150.308C275.797,151.028 275.88,151.728 276.046,152.407C276.211,153.087 276.516,153.667 276.957,154.147C277.731,154.946 278.947,155.346 280.605,155.346L280.77,155.346C283.313,155.346 285.717,154.626 287.982,153.186C290.248,151.747 292.376,149.948 294.365,147.789C296.386,145.59 298.216,143.222 299.836,140.713C301.376,138.344 302.868,135.945 304.312,133.516L304.644,133.156C304.976,132.516 305.611,132.056 306.551,131.776C307.49,131.496 308.401,131.516 309.286,131.836L309.285,131.838Z" style="fill:rgb(253,232,197);fill-rule:nonzero;"/>
                <path d="M412.074,131.838C412.958,132.158 413.594,132.638 413.98,133.278C414.367,133.917 414.34,134.556 413.897,135.196L413.732,135.556C412.056,138.316 410.314,141.035 408.509,143.712C406.578,146.586 404.386,149.277 401.961,151.748C399.553,154.209 396.786,156.292 393.754,157.925C390.714,159.565 387.371,160.385 383.724,160.385L383.392,160.385C381.182,160.385 379.302,160.065 377.756,159.425C376.208,158.785 374.937,157.945 373.942,156.905C373.058,155.946 372.45,154.907 372.119,153.787C371.786,152.658 371.618,151.486 371.621,150.309L371.621,149.949C371.842,147.39 372.506,144.672 373.611,141.793C374.172,140.334 374.78,138.894 375.435,137.475C376.124,135.982 376.843,134.502 377.59,133.037C377.81,132.637 378.004,132.257 378.17,131.897C378.336,131.537 378.53,131.158 378.75,130.758C379.966,128.519 381.237,125.921 382.563,122.962C383.89,120.003 384.553,117.245 384.553,114.686C384.553,112.926 383.945,111.447 382.729,110.248C381.513,109.048 379.248,108.448 375.932,108.448C373.832,108.448 371.704,109.068 369.549,110.308C367.394,111.548 365.211,113.127 363,115.046C360.016,117.684 357.28,120.723 354.794,124.161C352.307,127.6 350.234,130.838 348.577,133.877C347.715,135.58 346.885,137.299 346.09,139.034C345.221,140.921 344.337,142.8 343.437,144.672C342.761,146.138 342.07,147.598 341.365,149.05C340.699,150.415 340.064,151.795 339.459,153.188C339.001,154.253 338.531,155.312 338.049,156.366C337.662,157.206 337.414,157.706 337.303,157.866C336.972,158.506 336.363,158.985 335.48,159.305C334.595,159.625 333.711,159.665 332.827,159.425C331.943,159.185 331.28,158.745 330.837,158.105C330.395,157.465 330.34,156.826 330.672,156.186C330.782,156.026 331.031,155.526 331.418,154.687C331.805,153.847 332.302,152.787 332.91,151.508C333.518,150.229 334.153,148.85 334.816,147.37C335.48,145.891 336.143,144.472 336.806,143.112L341.116,133.757C341.116,133.677 341.144,133.597 341.199,133.517C341.255,133.437 341.282,133.317 341.282,133.157C341.503,132.837 341.724,132.437 341.945,131.957C342.498,130.838 342.968,129.879 343.355,129.079C343.741,128.279 343.99,127.719 344.101,127.399C345.121,125.422 346.007,123.379 346.753,121.283C347.527,119.123 347.913,117.085 347.913,115.166C347.913,113.406 347.527,112.007 346.753,110.968C346.09,109.928 345.04,109.248 343.603,108.928C343.051,108.768 342.47,108.648 341.863,108.568C341.255,108.488 340.509,108.448 339.624,108.448C337.304,108.448 334.927,109.288 332.495,110.968C330.064,112.647 327.632,114.726 325.201,117.205C322.617,120.055 320.182,123.038 317.906,126.14C315.743,129.074 313.643,132.053 311.606,135.076C311.606,135.236 311.496,135.396 311.275,135.556C308.918,140.463 306.541,145.361 304.145,150.249C302.045,154.527 300.665,157.346 300.001,158.705C299.669,159.425 299.061,159.925 298.177,160.205C297.293,160.485 296.409,160.545 295.525,160.385C294.64,160.145 293.977,159.705 293.535,159.065C293.093,158.425 293.038,157.785 293.369,157.145C293.701,156.426 294.254,155.287 295.027,153.727C297.137,149.468 299.21,145.189 301.244,140.893C302.515,138.215 302.709,136.396 304.146,133.517C306.246,129.359 309.616,123.981 311.938,119.304C314.258,114.626 316.58,109.928 318.901,105.21C319.232,104.57 319.841,104.09 320.724,103.771C321.574,103.453 322.502,103.411 323.377,103.651C324.261,103.891 324.924,104.331 325.367,104.971C325.809,105.611 325.864,106.25 325.532,106.89C324.98,107.77 324.427,108.889 323.874,110.248C326.306,108.168 328.82,106.51 331.418,105.27C333.978,104.039 336.784,103.404 339.624,103.411C341.945,103.411 344.045,103.651 345.924,104.131C349.129,105.011 351.506,106.53 353.054,108.689C354.269,110.448 354.877,112.367 354.877,114.446C355.319,113.966 355.761,113.506 356.203,113.066C356.645,112.626 357.087,112.207 357.529,111.807C360.293,109.328 363.221,107.309 366.316,105.75C369.411,104.19 372.616,103.411 375.932,103.411C381.9,103.411 385.99,104.491 388.2,106.65C390.41,108.809 391.516,111.487 391.516,114.686C391.516,117.644 390.798,120.763 389.361,124.041C387.924,127.32 386.542,130.159 385.216,132.557C384.995,132.957 384.802,133.357 384.636,133.757C384.47,134.157 384.332,134.517 384.221,134.837C382.674,137.635 381.403,140.394 380.408,143.112C379.856,144.392 379.441,145.612 379.165,146.771C378.888,147.931 378.75,149.03 378.75,150.069L378.585,150.309L378.75,150.309C378.75,151.029 378.833,151.729 378.999,152.408C379.165,153.088 379.469,153.668 379.911,154.148C380.684,154.947 381.901,155.347 383.558,155.347L383.724,155.347C386.266,155.347 388.67,154.627 390.936,153.187C393.202,151.748 395.329,149.949 397.319,147.79C399.34,145.591 401.169,143.223 402.789,140.714C404.329,138.345 405.822,135.946 407.266,133.517L407.432,133.157C407.874,132.517 408.537,132.057 409.422,131.777C410.287,131.497 411.222,131.518 412.074,131.837L412.074,131.838Z" style="fill:rgb(253,232,197);fill-rule:nonzero;"/>
                <path d="M478.886,131.838C479.771,132.158 480.406,132.638 480.793,133.278C481.18,133.917 481.153,134.556 480.71,135.196L480.544,135.556C478.868,138.316 477.127,141.035 475.322,143.712C473.379,146.601 471.158,149.292 468.69,151.748C466.26,154.184 463.497,156.264 460.484,157.925C457.5,159.565 454.129,160.385 450.371,160.385L450.205,160.385C447.995,160.385 446.115,160.065 444.568,159.425C443.021,158.785 441.75,157.945 440.755,156.905C439.871,155.946 439.263,154.907 438.931,153.787C438.598,152.658 438.431,151.486 438.434,150.309L438.434,150.189C435.56,153.148 432.383,155.567 428.901,157.446C425.42,159.325 421.579,160.224 417.379,160.144C412.737,160.064 409.311,158.705 407.1,156.066C405.902,154.897 405.043,153.426 404.613,151.808C404.171,150.169 404.005,148.39 404.116,146.471C404.116,144.791 404.447,142.753 405.111,140.354C405.774,137.954 406.658,135.396 407.763,132.677C408.868,129.959 410.25,127.2 411.908,124.401C413.542,121.636 415.37,118.991 417.378,116.485C420.474,112.807 423.955,109.728 427.824,107.249C431.692,104.771 436.002,103.491 440.755,103.411L442.247,103.411C444.457,103.571 446.53,104.011 448.464,104.731C450.398,105.451 452.139,106.41 453.687,107.609C454.46,108.329 455.179,109.129 455.842,110.009C456.394,108.969 456.892,108.009 457.334,107.129C457.776,106.249 458.218,105.41 458.66,104.611C458.992,103.971 459.6,103.511 460.484,103.231C461.368,102.951 462.252,102.931 463.136,103.171C464.021,103.411 464.656,103.851 465.043,104.491C465.43,105.131 465.458,105.771 465.126,106.41C463.958,108.719 462.769,111.018 461.561,113.307C459.962,116.353 458.388,119.411 456.837,122.482C455.769,124.646 454.691,126.805 453.604,128.959C452.659,130.822 451.747,132.701 450.868,134.596C449.1,138.115 447.828,141.153 447.055,143.712C446.502,145.072 446.088,146.271 445.812,147.31C445.535,148.35 445.397,149.27 445.397,150.07L445.397,150.309C445.397,151.029 445.48,151.729 445.646,152.408C445.812,153.088 446.116,153.668 446.558,154.148C447.331,154.947 448.602,155.347 450.371,155.347C452.913,155.347 455.317,154.627 457.583,153.187C459.848,151.748 461.976,149.949 463.965,147.79C465.996,145.578 467.853,143.212 469.519,140.714C471.105,138.357 472.625,135.957 474.079,133.517L474.244,133.157C474.686,132.517 475.35,132.057 476.234,131.777C477.099,131.497 478.034,131.518 478.886,131.837L478.886,131.838ZM417.545,155.107C420.86,155.187 423.983,154.247 426.912,152.288C429.841,150.329 432.549,147.85 435.035,144.852C437.522,141.853 439.788,138.575 441.833,135.016C443.721,131.738 445.572,128.44 447.387,125.121C448.115,123.923 448.806,122.703 449.459,121.463C450.018,120.392 450.598,119.332 451.199,118.284C451.31,118.044 451.366,117.764 451.366,117.444C451.144,114.566 450.15,112.407 448.381,110.968C446.502,109.528 444.291,108.728 441.75,108.568C441.529,108.488 441.197,108.448 440.755,108.448C437.55,108.528 434.483,109.568 431.554,111.568C428.624,113.566 425.889,116.085 423.347,119.124C421.477,121.43 419.787,123.876 418.291,126.44C416.861,128.876 415.587,131.4 414.478,133.997C413.428,136.476 412.598,138.814 411.991,141.013C411.383,143.213 411.079,145.072 411.079,146.591C411.079,149.629 411.687,151.868 412.903,153.308C413.897,154.428 415.445,155.027 417.545,155.107Z" style="fill:rgb(253,232,197);fill-rule:nonzero;"/>
                <path d="M550.175,131.838C551.059,132.158 551.695,132.638 552.082,133.278C552.469,133.917 552.441,134.556 551.999,135.196C550.361,137.726 548.647,140.206 546.859,142.633C545.3,144.75 543.641,146.792 541.886,148.75C538.46,152.508 534.867,155.387 531.11,157.386C529.12,158.346 526.965,159.065 524.644,159.545C522.434,160.105 520.168,160.385 517.847,160.385L517.681,160.385C514.144,160.385 511.215,159.505 508.894,157.745C507.891,156.855 507.074,155.774 506.49,154.567C505.882,153.327 505.578,151.908 505.578,150.309L505.578,149.829C502.705,152.868 499.499,155.367 495.963,157.326C492.426,159.285 488.503,160.224 484.192,160.144C479.55,160.064 476.123,158.705 473.912,156.066C472.714,154.897 471.855,153.425 471.426,151.808C470.984,150.169 470.818,148.39 470.929,146.471C470.929,144.791 471.26,142.753 471.923,140.354C472.586,137.954 473.471,135.396 474.576,132.677C475.681,129.959 477.063,127.2 478.721,124.401C480.355,121.636 482.183,118.991 484.191,116.485C487.286,112.807 490.768,109.728 494.636,107.249C498.505,104.771 502.816,103.491 507.568,103.411L509.06,103.411C511.27,103.571 513.343,104.011 515.277,104.731C517.211,105.451 518.952,106.41 520.499,107.609C520.831,108.009 521.19,108.369 521.577,108.689C521.964,109.009 522.267,109.369 522.489,109.769C523.036,108.74 523.561,107.7 524.064,106.649C524.567,105.599 525.092,104.559 525.639,103.531L529.286,95.975L529.286,95.855L530.281,93.815C530.818,92.576 531.398,91.355 532.021,90.157C532.74,88.758 533.541,87.099 534.425,85.18C534.757,84.54 535.365,84.08 536.249,83.8C537.133,83.52 538.017,83.5 538.902,83.74C539.786,83.98 540.422,84.42 540.808,85.06C541.195,85.7 541.223,86.34 540.891,86.979C540.136,88.46 539.417,89.96 538.736,91.477C538.152,92.787 537.544,94.087 536.912,95.375L535.917,97.534L535.752,97.654L532.27,105.21C529.841,110.002 527.465,114.82 525.141,119.664C522.755,124.637 520.379,129.614 518.012,134.596C517.273,136.194 516.582,137.814 515.94,139.454C515.37,140.917 514.79,142.377 514.2,143.832C513.647,145.112 513.232,146.291 512.956,147.37C512.68,148.45 512.541,149.35 512.541,150.07L512.541,150.309C512.541,152.149 513.094,153.468 514.199,154.267C514.973,154.987 516.133,155.347 517.681,155.347L517.847,155.347C519.173,155.347 520.775,155.147 522.654,154.747C524.312,154.347 525.804,153.827 527.131,153.187C530.115,151.668 533.099,149.27 536.083,145.991C539.067,142.633 545.756,132.556 549.072,127.279C549.514,126.639 546.638,131.958 547.522,131.718C548.407,131.478 549.292,131.518 550.175,131.838ZM484.357,155.107C487.673,155.187 490.795,154.247 493.724,152.288C496.654,150.329 499.361,147.85 501.848,144.852C504.335,141.853 506.601,138.575 508.645,135.016C510.533,131.738 512.384,128.44 514.199,125.121C514.927,123.923 515.618,122.703 516.272,121.463C516.831,120.392 517.411,119.332 518.012,118.284C518.122,118.044 518.178,117.764 518.178,117.444C517.958,114.566 516.962,112.407 515.194,110.968C513.315,109.528 511.104,108.728 508.562,108.568C508.342,108.488 508.01,108.448 507.568,108.448C504.362,108.528 501.295,109.568 498.366,111.568C495.438,113.566 492.702,116.085 490.16,119.124C488.29,121.43 486.599,123.876 485.103,126.44C483.673,128.876 482.399,131.4 481.29,133.997C480.24,136.476 479.411,138.814 478.803,141.013C478.196,143.213 477.892,145.072 477.892,146.591C477.892,149.629 478.5,151.868 479.715,153.308C480.71,154.428 482.257,155.027 484.357,155.107Z" style="fill:rgb(253,232,197);fill-rule:nonzero;"/>
                <path d="M614.998,131.838C615.883,132.078 616.518,132.518 616.905,133.158C617.292,133.797 617.265,134.437 616.822,135.076L615.496,137.476C615.275,137.795 615.026,138.115 614.75,138.435C614.473,138.755 614.225,139.115 614.004,139.515C612.807,141.091 611.563,142.631 610.274,144.132C609.002,145.612 607.483,146.991 605.714,148.27C603.835,149.63 601.708,150.709 599.331,151.508C596.955,152.308 594.22,152.708 591.125,152.708C589.467,152.708 587.92,152.588 586.483,152.348C583.72,151.708 581.288,150.748 579.188,149.469C576.093,152.508 572.557,155.087 568.578,157.206C564.598,159.325 560.62,160.384 556.641,160.384C552.109,160.384 548.738,159.544 546.528,157.865C544.318,156.186 542.963,154.007 542.466,151.329C541.969,148.649 542.135,145.651 542.963,142.333C543.814,138.953 544.98,135.66 546.445,132.497C547.891,129.344 549.524,126.28 551.335,123.322C553.105,120.443 554.762,118.084 556.309,116.245C559.404,112.567 562.886,109.508 566.754,107.069C570.622,104.631 574.878,103.411 579.52,103.411L579.686,103.411C582.117,103.491 584.411,103.831 586.566,104.431C588.721,105.031 590.572,106.01 592.12,107.369C593.447,108.49 594.521,109.88 595.27,111.447C596.043,113.047 596.375,114.926 596.264,117.085C596.264,119.004 595.933,121.103 595.27,123.382C594.606,125.661 593.695,128.04 592.534,130.518C591.322,133.092 589.966,135.595 588.472,138.015C586.937,140.517 585.219,142.902 583.332,145.151C584.549,146.271 586.207,147.031 588.307,147.431C589.412,147.591 590.351,147.671 591.125,147.671C593.115,147.671 594.91,147.391 596.513,146.831C598.116,146.271 599.525,145.551 600.741,144.671C602.157,143.65 603.463,142.485 604.637,141.193C605.763,139.958 606.789,138.634 607.704,137.235C607.924,136.915 608.146,136.615 608.367,136.335C608.588,136.055 608.809,135.715 609.03,135.316C609.251,134.996 609.472,134.656 609.693,134.296C609.914,133.936 610.135,133.556 610.356,133.157C610.688,132.517 611.323,132.057 612.263,131.777C613.203,131.497 614.114,131.517 614.998,131.837L614.998,131.838ZM579.354,131.718C580.238,131.878 580.929,132.258 581.426,132.858C581.924,133.457 582.062,134.117 581.841,134.836C581.62,135.316 581.454,135.796 581.343,136.276C581.233,136.756 581.123,137.196 581.012,137.595C583.554,133.997 585.543,130.358 586.98,126.68C588.417,123.002 589.19,119.763 589.301,116.965C589.411,114.246 588.583,112.167 586.814,110.728C585.93,110.008 584.88,109.468 583.664,109.108C582.449,108.748 581.067,108.528 579.52,108.448C576.315,108.448 573.275,109.428 570.401,111.388C567.528,113.346 564.875,115.845 562.444,118.884C561.338,120.164 560.067,121.942 558.63,124.221C557.107,126.654 555.696,129.155 554.403,131.718C553.042,134.388 551.878,137.154 550.921,139.994C549.981,142.793 549.457,145.331 549.346,147.61C549.236,149.89 549.733,151.748 550.838,153.188C551.944,154.627 553.878,155.347 556.641,155.347C559.736,155.347 562.913,154.307 566.174,152.228C569.451,150.136 572.481,147.682 575.209,144.912C574.325,143.392 573.883,141.513 573.883,139.274C573.883,137.355 574.27,135.436 575.043,133.517C575.265,132.797 575.79,132.277 576.618,131.957C577.448,131.637 578.359,131.557 579.354,131.717L579.354,131.718Z" style="fill:rgb(253,232,197);fill-rule:nonzero;"/>
            </g>
            <g>
                <path d="M123.587,128.838C124.471,129.158 125.107,129.638 125.493,130.278C125.88,130.917 125.853,131.556 125.41,132.196L125.244,132.556C123.568,135.316 121.827,138.035 120.022,140.712C118.079,143.601 115.859,146.292 113.391,148.748C110.961,151.184 108.198,153.264 105.184,154.925C102.2,156.565 98.829,157.385 95.071,157.385L94.905,157.385C92.695,157.385 90.815,157.065 89.268,156.425C87.721,155.785 86.45,154.945 85.455,153.905C84.571,152.946 83.963,151.907 83.632,150.787C83.299,149.658 83.131,148.486 83.134,147.309L83.134,147.189C80.261,150.148 77.083,152.567 73.601,154.446C70.12,156.325 66.279,157.224 62.079,157.144C57.437,157.064 54.011,155.705 51.8,153.066C50.602,151.897 49.743,150.426 49.313,148.808C48.871,147.169 48.706,145.39 48.816,143.471C48.816,141.791 49.148,139.753 49.811,137.354C50.474,134.954 51.358,132.396 52.463,129.677C53.569,126.959 54.95,124.2 56.608,121.401C58.242,118.636 60.071,115.991 62.079,113.485C65.174,109.807 68.655,106.728 72.524,104.249C76.392,101.771 80.703,100.491 85.455,100.411L86.947,100.411C89.157,100.571 91.23,101.011 93.164,101.731C95.099,102.451 96.839,103.41 98.387,104.609C99.16,105.329 99.879,106.129 100.542,107.009C101.095,105.969 101.592,105.009 102.034,104.129C102.476,103.249 102.918,102.41 103.36,101.611C103.692,100.971 104.3,100.511 105.184,100.231C106.068,99.951 106.952,99.931 107.837,100.171C108.721,100.411 109.357,100.851 109.743,101.491C110.13,102.131 110.158,102.771 109.826,103.41C108.658,105.719 107.47,108.018 106.262,110.307C104.663,113.353 103.088,116.411 101.537,119.482C100.469,121.646 99.391,123.805 98.304,125.959C97.359,127.822 96.447,129.701 95.568,131.596C93.8,135.115 92.528,138.153 91.755,140.712C91.203,142.072 90.788,143.271 90.512,144.31C90.235,145.35 90.097,146.27 90.097,147.07L90.097,147.309C90.097,148.029 90.18,148.729 90.346,149.408C90.512,150.088 90.816,150.668 91.258,151.148C92.031,151.947 93.303,152.347 95.071,152.347C97.613,152.347 100.017,151.627 102.283,150.187C104.549,148.748 106.676,146.949 108.666,144.79C110.697,142.578 112.553,140.212 114.219,137.714C115.805,135.357 117.325,132.957 118.779,130.517L118.944,130.157C119.387,129.517 120.05,129.057 120.934,128.777C121.8,128.497 122.735,128.518 123.587,128.837L123.587,128.838ZM62.245,152.107C65.561,152.187 68.683,151.247 71.612,149.288C74.541,147.329 77.249,144.85 79.736,141.852C82.222,138.853 84.488,135.575 86.533,132.016C88.421,128.738 90.272,125.44 92.087,122.121C92.815,120.923 93.506,119.703 94.159,118.463C94.718,117.392 95.298,116.332 95.899,115.284C96.01,115.044 96.066,114.764 96.066,114.444C95.845,111.566 94.85,109.407 93.081,107.968C91.203,106.528 88.992,105.728 86.45,105.568C86.229,105.488 85.897,105.448 85.455,105.448C82.25,105.528 79.183,106.568 76.254,108.568C73.325,110.566 70.59,113.085 68.047,116.124C66.177,118.43 64.487,120.876 62.991,123.44C61.561,125.876 60.287,128.4 59.178,130.997C58.128,133.476 57.298,135.814 56.691,138.013C56.083,140.213 55.779,142.072 55.779,143.591C55.779,146.629 56.387,148.868 57.603,150.308C58.598,151.428 60.145,152.027 62.245,152.107Z" style="fill:rgb(233,101,118);fill-rule:nonzero;"/>
                <path d="M184.597,128.838C185.481,129.158 186.117,129.638 186.503,130.278C186.89,130.917 186.863,131.556 186.42,132.196L186.254,132.556C184.578,135.316 182.837,138.035 181.032,140.712C179.101,143.587 176.909,146.277 174.483,148.748C172.075,151.209 169.308,153.292 166.277,154.925C163.237,156.565 159.839,157.385 156.081,157.385L155.915,157.385C153.705,157.385 151.825,157.065 150.278,156.425C148.731,155.785 147.46,154.945 146.465,153.905C145.581,152.946 144.973,151.907 144.642,150.787C144.309,149.658 144.141,148.486 144.144,147.309L144.144,146.949C144.144,145.11 144.752,142.631 145.968,139.513C146.521,138.073 147.101,136.554 147.708,134.955C148.354,133.272 149.102,131.63 149.947,130.037C150.585,128.732 151.193,127.412 151.77,126.079C152.213,125.039 152.6,124.12 152.931,123.32C153.423,122.331 153.893,121.331 154.341,120.322C154.727,119.442 155.252,118.362 155.915,117.083L153.263,116.483C150.727,115.817 148.185,115.177 145.636,114.564C142.984,113.924 140.386,113.165 137.844,112.286C137.624,112.846 137.347,113.386 137.015,113.905C136.684,114.425 136.407,114.885 136.186,115.285L136.186,115.405L122.758,136.395C122.315,137.034 119.652,141.473 118.768,141.713C117.884,141.953 119,137.913 118.116,137.593C117.231,137.273 116.623,136.794 116.292,136.154C115.96,135.514 116.016,134.874 116.458,134.235L129.721,113.365L131.711,109.767C128.947,108.407 126.764,106.828 125.161,105.029C123.559,103.229 122.923,101.051 123.255,98.492C123.587,96.732 124.637,95.214 126.405,93.934C126.405,93.854 126.46,93.814 126.571,93.814C128.561,92.534 130.826,91.895 133.368,91.895C134.142,91.895 135.081,91.975 136.186,92.135L136.352,92.255C137.568,92.495 138.618,92.895 139.502,93.455C140.386,94.015 141.105,94.654 141.657,95.374C142.542,96.573 142.984,98.052 142.984,99.811C142.984,100.851 142.707,102.051 142.154,103.41C141.934,104.05 141.657,104.71 141.326,105.389C140.994,106.069 140.663,106.769 140.331,107.488C142.652,108.368 145.139,109.128 147.791,109.767C150.444,110.407 152.986,111.047 155.418,111.686C157.96,112.246 160.06,112.726 161.718,113.126C162.602,113.366 163.238,113.825 163.624,114.505C164.011,115.185 164.039,115.844 163.707,116.484L163.707,116.604C162.713,118.443 161.939,119.942 161.387,121.101C160.797,122.344 160.244,123.604 159.728,124.88C159.286,125.76 158.816,126.739 158.319,127.818L156.579,131.596C155.844,133.188 155.126,134.787 154.423,136.394C153.801,137.806 153.248,139.247 152.765,140.712C152.213,142.072 151.825,143.271 151.605,144.31C151.406,145.224 151.24,146.144 151.107,147.07L151.107,147.309C151.107,148.029 151.19,148.729 151.356,149.408C151.522,150.088 151.881,150.668 152.434,151.148C152.765,151.547 153.207,151.847 153.76,152.047C154.313,152.247 155.086,152.347 156.081,152.347C158.734,152.347 161.193,151.627 163.459,150.187C165.724,148.748 167.852,146.949 169.841,144.79C171.862,142.591 173.692,140.223 175.312,137.714C176.852,135.345 178.345,132.946 179.789,130.517L179.954,130.157C180.397,129.517 181.06,129.057 181.944,128.777C182.81,128.497 183.745,128.518 184.597,128.837L184.597,128.838ZM135.523,101.85C135.855,101.13 136.021,100.411 136.021,99.692C136.021,98.892 135.855,98.252 135.523,97.772C135.192,97.372 134.805,97.132 134.363,97.052L134.197,97.052C133.976,97.052 133.837,97.032 133.782,96.992C133.727,96.952 133.589,96.932 133.368,96.932C132.594,96.932 131.931,97.132 131.378,97.532L131.213,97.532C130.771,97.852 130.439,98.372 130.218,99.092C129.997,100.212 130.273,101.231 131.047,102.15C131.821,103.07 132.871,103.93 134.197,104.73L135.523,101.85Z" style="fill:rgb(233,101,118);fill-rule:nonzero;"/>
                <path d="M245.607,128.838C246.491,129.158 247.127,129.638 247.513,130.278C247.9,130.917 247.873,131.556 247.43,132.196L247.264,132.556C245.588,135.316 243.847,138.035 242.042,140.712C240.111,143.586 237.919,146.277 235.494,148.748C233.086,151.209 230.319,153.292 227.287,154.925C224.247,156.565 220.849,157.385 217.091,157.385L216.925,157.385C214.715,157.385 212.835,157.065 211.288,156.425C209.741,155.785 208.47,154.945 207.475,153.905C206.591,152.946 205.983,151.907 205.652,150.787C205.319,149.658 205.151,148.486 205.154,147.309L205.154,146.949C205.154,145.11 205.762,142.631 206.978,139.513C207.531,138.073 208.111,136.554 208.718,134.955C209.364,133.272 210.112,131.63 210.957,130.037C211.596,128.732 212.204,127.412 212.781,126.079C213.223,125.039 213.609,124.12 213.941,123.32C214.433,122.331 214.903,121.331 215.351,120.322C215.737,119.442 216.262,118.362 216.925,117.083L214.273,116.483C211.737,115.817 209.195,115.177 206.646,114.564C203.994,113.924 201.396,113.165 198.854,112.286C198.634,112.846 198.357,113.386 198.025,113.905C197.694,114.425 197.418,114.885 197.196,115.285L197.196,115.405L183.768,136.395C183.326,137.034 180.01,142.474 179.126,142.714C178.241,142.954 180.01,137.914 179.126,137.594C178.241,137.274 177.633,136.794 177.302,136.154C176.97,135.514 177.026,134.874 177.468,134.235L190.731,113.365L192.721,109.767C189.957,108.407 187.774,106.828 186.171,105.029C184.569,103.229 183.933,101.051 184.265,98.492C184.597,96.732 185.647,95.214 187.415,93.934C187.415,93.854 187.47,93.814 187.581,93.814C189.571,92.534 191.836,91.895 194.378,91.895C195.152,91.895 196.091,91.975 197.196,92.135L197.362,92.255C198.578,92.495 199.628,92.895 200.512,93.455C201.396,94.015 202.115,94.654 202.667,95.374C203.552,96.573 203.994,98.052 203.994,99.811C203.994,100.851 203.717,102.051 203.164,103.41C202.944,104.05 202.667,104.71 202.336,105.389C202.004,106.069 201.673,106.769 201.341,107.488C203.662,108.368 206.149,109.128 208.801,109.767C211.454,110.407 213.996,111.047 216.428,111.686C218.97,112.246 221.07,112.726 222.728,113.126C223.612,113.366 224.248,113.825 224.634,114.505C225.021,115.185 225.049,115.844 224.717,116.484L224.717,116.604C223.723,118.443 222.949,119.942 222.397,121.101C221.807,122.344 221.254,123.604 220.738,124.88C220.296,125.76 219.827,126.739 219.329,127.818L217.589,131.596C216.854,133.188 216.136,134.787 215.433,136.394C214.811,137.806 214.258,139.247 213.775,140.712C213.223,142.072 212.835,143.271 212.615,144.31C212.416,145.224 212.25,146.144 212.117,147.07L212.117,147.309C212.117,148.029 212.2,148.729 212.367,149.408C212.532,150.088 212.891,150.668 213.444,151.148C213.775,151.547 214.217,151.847 214.77,152.047C215.323,152.247 216.096,152.347 217.091,152.347C219.744,152.347 222.203,151.627 224.469,150.187C226.734,148.748 228.862,146.949 230.851,144.79C232.872,142.591 234.702,140.223 236.322,137.714C237.862,135.345 239.355,132.946 240.799,130.517L243.964,124.88C244.406,124.24 242.07,129.058 242.954,128.778C243.82,128.498 244.755,128.519 245.607,128.838ZM196.533,101.85C196.865,101.13 197.031,100.411 197.031,99.692C197.031,98.892 196.865,98.252 196.533,97.772C196.202,97.372 195.815,97.132 195.373,97.052L195.207,97.052C194.986,97.052 194.847,97.032 194.793,96.992C194.737,96.952 194.599,96.932 194.378,96.932C193.604,96.932 192.941,97.132 192.388,97.532L192.223,97.532C191.781,97.852 191.449,98.372 191.228,99.092C191.007,100.212 191.283,101.231 192.057,102.15C192.831,103.07 193.881,103.93 195.207,104.73L196.533,101.85Z" style="fill:rgb(233,101,118);fill-rule:nonzero;"/>
                <path d="M306.285,128.838C307.169,129.158 307.777,129.638 308.109,130.278C308.44,130.917 308.385,131.556 307.943,132.196L307.777,132.556C306.101,135.316 304.36,138.035 302.555,140.712C300.624,143.587 298.432,146.277 296.006,148.748C293.598,151.209 290.831,153.292 287.8,154.925C284.76,156.565 281.417,157.385 277.77,157.385L277.438,157.385C275.228,157.385 273.348,157.065 271.801,156.425C270.254,155.785 269.038,154.945 268.154,153.905C267.506,153.21 266.999,152.395 266.662,151.507C266.33,150.627 266.054,149.747 265.832,148.868C263.451,151.308 260.712,153.371 257.709,154.985C254.725,156.585 251.354,157.385 247.596,157.385L247.43,157.385C245.22,157.385 243.34,157.065 241.793,156.425C240.246,155.785 238.975,154.945 237.98,153.905C237.096,152.946 236.488,151.907 236.157,150.787C235.824,149.658 235.656,148.486 235.659,147.309L235.659,146.949C235.659,145.11 236.267,142.631 237.483,139.513C238.036,138.073 238.616,136.554 239.223,134.955C239.869,133.272 240.617,131.63 241.462,130.037C241.904,129.157 242.512,127.878 243.286,126.199C244.059,124.519 245.054,122.521 246.27,120.202C247.707,117.403 249.226,114.425 250.829,111.266C252.432,108.108 254.007,105.009 255.554,101.97C255.885,101.33 256.494,100.871 257.378,100.591C258.262,100.311 259.146,100.291 260.03,100.531C260.914,100.771 261.55,101.211 261.937,101.851C262.324,102.491 262.351,103.13 262.02,103.77C260.345,107.1 258.687,110.438 257.046,113.785C255.701,116.542 254.319,119.281 252.901,122.001C251.92,123.913 250.953,125.832 250,127.758C249.369,129.039 248.733,130.319 248.093,131.596C247.265,133.156 246.518,134.757 245.855,136.394C245.279,137.835 244.699,139.274 244.115,140.712C243.723,141.901 243.364,143.101 243.037,144.31C242.761,145.35 242.622,146.27 242.622,147.07L242.622,147.309C242.622,148.029 242.705,148.729 242.872,149.408C243.037,150.088 243.341,150.668 243.782,151.148C244.557,151.947 245.828,152.347 247.596,152.347C250.138,152.347 252.542,151.627 254.808,150.187C257.074,148.748 259.201,146.949 261.191,144.79C263.222,142.578 265.079,140.212 266.745,137.714C268.33,135.357 269.85,132.957 271.304,130.517L271.304,130.397C271.414,130.317 271.47,130.197 271.47,130.037C271.912,129.157 272.547,127.878 273.376,126.199C274.206,124.519 275.172,122.521 276.277,120.202C277.898,117.262 279.446,114.282 280.919,111.266C282.443,108.155 283.99,105.057 285.562,101.97C285.893,101.33 286.501,100.871 287.385,100.591C288.269,100.311 289.154,100.291 290.038,100.531C290.922,100.771 291.585,101.211 292.028,101.851C292.469,102.491 292.525,103.13 292.193,103.77C290.422,107.078 288.708,110.417 287.053,113.785C285.709,116.542 284.328,119.28 282.91,122C281.932,123.9 280.992,125.819 280.092,127.757C279.318,129.437 278.655,130.716 278.102,131.595L278.102,131.715C278.1,131.802 278.071,131.885 278.019,131.955C277.967,132.025 277.938,132.108 277.936,132.195C277.207,133.697 276.516,135.216 275.864,136.753C275.309,138.06 274.783,139.38 274.289,140.711C273.294,143.35 272.797,145.469 272.797,147.068L272.797,147.308C272.797,148.028 272.88,148.728 273.046,149.407C273.211,150.087 273.516,150.667 273.957,151.147C274.731,151.946 275.947,152.346 277.605,152.346L277.77,152.346C280.313,152.346 282.717,151.626 284.982,150.186C287.248,148.747 289.376,146.948 291.365,144.789C293.386,142.59 295.216,140.222 296.836,137.713C298.376,135.344 299.868,132.945 301.312,130.516L301.644,130.156C301.976,129.516 302.611,129.056 303.551,128.776C304.49,128.496 305.401,128.516 306.286,128.836L306.285,128.838Z" style="fill:rgb(233,101,118);fill-rule:nonzero;"/>
                <path d="M409.074,128.838C409.958,129.158 410.594,129.638 410.98,130.278C411.367,130.917 411.34,131.556 410.897,132.196L410.732,132.556C409.056,135.316 407.314,138.035 405.509,140.712C403.578,143.586 401.386,146.277 398.961,148.748C396.553,151.209 393.786,153.292 390.754,154.925C387.714,156.565 384.371,157.385 380.724,157.385L380.392,157.385C378.182,157.385 376.302,157.065 374.756,156.425C373.208,155.785 371.937,154.945 370.942,153.905C370.058,152.946 369.45,151.907 369.119,150.787C368.786,149.658 368.618,148.486 368.621,147.309L368.621,146.949C368.842,144.39 369.506,141.672 370.611,138.793C371.172,137.334 371.78,135.894 372.435,134.475C373.124,132.982 373.843,131.502 374.59,130.037C374.81,129.637 375.004,129.257 375.17,128.897C375.336,128.537 375.53,128.158 375.75,127.758C376.966,125.519 378.237,122.921 379.563,119.962C380.89,117.003 381.553,114.245 381.553,111.686C381.553,109.926 380.945,108.447 379.729,107.248C378.513,106.048 376.248,105.448 372.932,105.448C370.832,105.448 368.704,106.068 366.549,107.308C364.394,108.548 362.211,110.127 360,112.046C357.016,114.684 354.28,117.723 351.794,121.161C349.307,124.6 347.234,127.838 345.577,130.877C344.715,132.58 343.885,134.299 343.09,136.034C342.221,137.921 341.337,139.8 340.437,141.672C339.761,143.138 339.07,144.598 338.365,146.05C337.699,147.415 337.064,148.795 336.459,150.188C336.001,151.253 335.531,152.312 335.049,153.366C334.662,154.206 334.414,154.706 334.303,154.866C333.972,155.506 333.363,155.985 332.48,156.305C331.595,156.625 330.711,156.665 329.827,156.425C328.943,156.185 328.28,155.745 327.837,155.105C327.395,154.465 327.34,153.826 327.672,153.186C327.782,153.026 328.031,152.526 328.418,151.687C328.805,150.847 329.302,149.787 329.91,148.508C330.518,147.229 331.153,145.85 331.816,144.37C332.48,142.891 333.143,141.472 333.806,140.112L338.116,130.757C338.116,130.677 338.144,130.597 338.199,130.517C338.255,130.437 338.282,130.317 338.282,130.157C338.503,129.837 338.724,129.437 338.945,128.957C339.498,127.838 339.968,126.879 340.355,126.079C340.741,125.279 340.99,124.719 341.101,124.399C342.121,122.422 343.007,120.379 343.753,118.283C344.527,116.123 344.913,114.085 344.913,112.166C344.913,110.406 344.527,109.007 343.753,107.968C343.09,106.928 342.04,106.248 340.603,105.928C340.051,105.768 339.47,105.648 338.863,105.568C338.255,105.488 337.509,105.448 336.624,105.448C334.304,105.448 331.927,106.288 329.495,107.968C327.064,109.647 324.632,111.726 322.201,114.205C319.617,117.055 317.182,120.038 314.906,123.14C312.743,126.074 310.643,129.053 308.606,132.076C308.606,132.236 308.496,132.396 308.275,132.556C305.918,137.463 303.541,142.361 301.145,147.249C299.045,151.527 297.665,154.346 297.001,155.705C296.669,156.425 296.061,156.925 295.177,157.205C294.293,157.485 293.409,157.545 292.525,157.385C291.64,157.145 290.977,156.705 290.535,156.065C290.093,155.425 290.038,154.785 290.369,154.145C290.701,153.426 291.254,152.287 292.027,150.727C294.137,146.468 296.21,142.189 298.244,137.893C299.515,135.215 299.709,133.396 301.146,130.517C303.246,126.359 306.616,120.981 308.938,116.304C311.258,111.626 313.58,106.928 315.901,102.21C316.232,101.57 316.841,101.09 317.724,100.771C318.574,100.453 319.502,100.411 320.377,100.651C321.261,100.891 321.924,101.331 322.367,101.971C322.809,102.611 322.864,103.25 322.532,103.89C321.98,104.77 321.427,105.889 320.874,107.248C323.306,105.168 325.82,103.51 328.418,102.27C330.978,101.039 333.784,100.404 336.624,100.411C338.945,100.411 341.045,100.651 342.924,101.131C346.129,102.011 348.506,103.53 350.054,105.689C351.269,107.448 351.877,109.367 351.877,111.446C352.319,110.966 352.761,110.506 353.203,110.066C353.645,109.626 354.087,109.207 354.529,108.807C357.293,106.328 360.221,104.309 363.316,102.75C366.411,101.19 369.616,100.411 372.932,100.411C378.9,100.411 382.99,101.491 385.2,103.65C387.41,105.809 388.516,108.487 388.516,111.686C388.516,114.644 387.798,117.763 386.361,121.041C384.924,124.32 383.542,127.159 382.216,129.557C381.995,129.957 381.802,130.357 381.636,130.757C381.47,131.157 381.332,131.517 381.221,131.837C379.674,134.635 378.403,137.394 377.408,140.112C376.856,141.392 376.441,142.612 376.165,143.771C375.888,144.931 375.75,146.03 375.75,147.069L375.585,147.309L375.75,147.309C375.75,148.029 375.833,148.729 375.999,149.408C376.165,150.088 376.469,150.668 376.911,151.148C377.684,151.947 378.901,152.347 380.558,152.347L380.724,152.347C383.266,152.347 385.67,151.627 387.936,150.187C390.202,148.748 392.329,146.949 394.319,144.79C396.34,142.591 398.169,140.223 399.789,137.714C401.329,135.345 402.822,132.946 404.266,130.517L404.432,130.157C404.874,129.517 405.537,129.057 406.422,128.777C407.287,128.497 408.222,128.518 409.074,128.837L409.074,128.838Z" style="fill:rgb(233,101,118);fill-rule:nonzero;"/>
                <path d="M475.886,128.838C476.771,129.158 477.406,129.638 477.793,130.278C478.18,130.917 478.153,131.556 477.71,132.196L477.544,132.556C475.868,135.316 474.127,138.035 472.322,140.712C470.379,143.601 468.158,146.292 465.69,148.748C463.26,151.184 460.497,153.264 457.484,154.925C454.5,156.565 451.129,157.385 447.371,157.385L447.205,157.385C444.995,157.385 443.115,157.065 441.568,156.425C440.021,155.785 438.75,154.945 437.755,153.905C436.871,152.946 436.263,151.907 435.931,150.787C435.598,149.658 435.431,148.486 435.434,147.309L435.434,147.189C432.56,150.148 429.383,152.567 425.901,154.446C422.42,156.325 418.579,157.224 414.379,157.144C409.737,157.064 406.311,155.705 404.1,153.066C402.902,151.897 402.043,150.426 401.613,148.808C401.171,147.169 401.005,145.39 401.116,143.471C401.116,141.791 401.447,139.753 402.111,137.354C402.774,134.954 403.658,132.396 404.763,129.677C405.868,126.959 407.25,124.2 408.908,121.401C410.542,118.636 412.37,115.991 414.378,113.485C417.474,109.807 420.955,106.728 424.824,104.249C428.692,101.771 433.002,100.491 437.755,100.411L439.247,100.411C441.457,100.571 443.53,101.011 445.464,101.731C447.398,102.451 449.139,103.41 450.687,104.609C451.46,105.329 452.179,106.129 452.842,107.009C453.394,105.969 453.892,105.009 454.334,104.129C454.776,103.249 455.218,102.41 455.66,101.611C455.992,100.971 456.6,100.511 457.484,100.231C458.368,99.951 459.252,99.931 460.136,100.171C461.021,100.411 461.656,100.851 462.043,101.491C462.43,102.131 462.458,102.771 462.126,103.41C460.958,105.719 459.769,108.018 458.561,110.307C456.962,113.353 455.388,116.411 453.837,119.482C452.769,121.646 451.691,123.805 450.604,125.959C449.659,127.822 448.747,129.701 447.868,131.596C446.1,135.115 444.828,138.153 444.055,140.712C443.502,142.072 443.088,143.271 442.812,144.31C442.535,145.35 442.397,146.27 442.397,147.07L442.397,147.309C442.397,148.029 442.48,148.729 442.646,149.408C442.812,150.088 443.116,150.668 443.558,151.148C444.331,151.947 445.602,152.347 447.371,152.347C449.913,152.347 452.317,151.627 454.583,150.187C456.848,148.748 458.976,146.949 460.965,144.79C462.996,142.578 464.853,140.212 466.519,137.714C468.105,135.357 469.625,132.957 471.079,130.517L471.244,130.157C471.686,129.517 472.35,129.057 473.234,128.777C474.099,128.497 475.034,128.518 475.886,128.837L475.886,128.838ZM414.545,152.107C417.86,152.187 420.983,151.247 423.912,149.288C426.841,147.329 429.549,144.85 432.035,141.852C434.522,138.853 436.788,135.575 438.833,132.016C440.721,128.738 442.572,125.44 444.387,122.121C445.115,120.923 445.806,119.703 446.459,118.463C447.018,117.392 447.598,116.332 448.199,115.284C448.31,115.044 448.366,114.764 448.366,114.444C448.144,111.566 447.15,109.407 445.381,107.968C443.502,106.528 441.291,105.728 438.75,105.568C438.529,105.488 438.197,105.448 437.755,105.448C434.55,105.528 431.483,106.568 428.554,108.568C425.624,110.566 422.889,113.085 420.347,116.124C418.477,118.43 416.787,120.876 415.291,123.44C413.861,125.876 412.587,128.4 411.478,130.997C410.428,133.476 409.598,135.814 408.991,138.013C408.383,140.213 408.079,142.072 408.079,143.591C408.079,146.629 408.687,148.868 409.903,150.308C410.897,151.428 412.445,152.027 414.545,152.107Z" style="fill:rgb(233,101,118);fill-rule:nonzero;"/>
                <path d="M547.175,128.838C548.059,129.158 548.695,129.638 549.082,130.278C549.469,130.917 549.441,131.556 548.999,132.196C547.361,134.726 545.647,137.206 543.859,139.633C542.3,141.75 540.641,143.792 538.886,145.75C535.46,149.508 531.867,152.387 528.11,154.386C526.12,155.346 523.965,156.065 521.644,156.545C519.434,157.105 517.168,157.385 514.847,157.385L514.681,157.385C511.144,157.385 508.215,156.505 505.894,154.745C504.891,153.855 504.074,152.774 503.49,151.567C502.882,150.327 502.578,148.908 502.578,147.309L502.578,146.829C499.705,149.868 496.499,152.367 492.963,154.326C489.426,156.285 485.503,157.224 481.192,157.144C476.55,157.064 473.123,155.705 470.912,153.066C469.714,151.897 468.855,150.425 468.426,148.808C467.984,147.169 467.818,145.39 467.929,143.471C467.929,141.791 468.26,139.753 468.923,137.354C469.586,134.954 470.471,132.396 471.576,129.677C472.681,126.959 474.063,124.2 475.721,121.401C477.355,118.636 479.183,115.991 481.191,113.485C484.286,109.807 487.768,106.728 491.636,104.249C495.505,101.771 499.816,100.491 504.568,100.411L506.06,100.411C508.27,100.571 510.343,101.011 512.277,101.731C514.211,102.451 515.952,103.41 517.499,104.609C517.831,105.009 518.19,105.369 518.577,105.689C518.964,106.009 519.267,106.369 519.489,106.769C520.036,105.74 520.561,104.7 521.064,103.649C521.567,102.599 522.092,101.559 522.639,100.531L526.286,92.975L526.286,92.855L527.281,90.815C527.818,89.576 528.398,88.355 529.021,87.157C529.74,85.758 530.541,84.099 531.425,82.18C531.757,81.54 532.365,81.08 533.249,80.8C534.133,80.52 535.017,80.5 535.902,80.74C536.786,80.98 537.422,81.42 537.808,82.06C538.195,82.7 538.223,83.34 537.891,83.979C537.136,85.46 536.417,86.96 535.736,88.477C535.152,89.787 534.544,91.087 533.912,92.375L532.917,94.534L532.752,94.654L529.27,102.21C526.841,107.002 524.465,111.82 522.141,116.664C519.755,121.637 517.379,126.614 515.012,131.596C514.273,133.194 513.582,134.814 512.94,136.454C512.37,137.917 511.79,139.377 511.2,140.832C510.647,142.112 510.232,143.291 509.956,144.37C509.68,145.45 509.541,146.35 509.541,147.07L509.541,147.309C509.541,149.149 510.094,150.468 511.199,151.267C511.973,151.987 513.133,152.347 514.681,152.347L514.847,152.347C516.173,152.347 517.775,152.147 519.654,151.747C521.312,151.347 522.804,150.827 524.131,150.187C527.115,148.668 530.099,146.27 533.083,142.991C536.067,139.633 542.756,129.556 546.072,124.279C546.514,123.639 543.638,128.958 544.522,128.718C545.407,128.478 546.292,128.518 547.175,128.838ZM481.357,152.107C484.673,152.187 487.795,151.247 490.724,149.288C493.654,147.329 496.361,144.85 498.848,141.852C501.335,138.853 503.601,135.575 505.645,132.016C507.533,128.738 509.384,125.44 511.199,122.121C511.927,120.923 512.618,119.703 513.272,118.463C513.831,117.392 514.411,116.332 515.012,115.284C515.122,115.044 515.178,114.764 515.178,114.444C514.958,111.566 513.962,109.407 512.194,107.968C510.315,106.528 508.104,105.728 505.562,105.568C505.342,105.488 505.01,105.448 504.568,105.448C501.362,105.528 498.295,106.568 495.366,108.568C492.438,110.566 489.702,113.085 487.16,116.124C485.29,118.43 483.599,120.876 482.103,123.44C480.673,125.876 479.399,128.4 478.29,130.997C477.24,133.476 476.411,135.814 475.803,138.013C475.196,140.213 474.892,142.072 474.892,143.591C474.892,146.629 475.5,148.868 476.715,150.308C477.71,151.428 479.257,152.027 481.357,152.107Z" style="fill:rgb(233,101,118);fill-rule:nonzero;"/>
                <path d="M611.998,128.838C612.883,129.078 613.518,129.518 613.905,130.158C614.292,130.797 614.265,131.437 613.822,132.076L612.496,134.476C612.275,134.795 612.026,135.115 611.75,135.435C611.473,135.755 611.225,136.115 611.004,136.515C609.807,138.091 608.563,139.631 607.274,141.132C606.002,142.612 604.483,143.991 602.714,145.27C600.835,146.63 598.708,147.709 596.331,148.508C593.955,149.308 591.22,149.708 588.125,149.708C586.467,149.708 584.92,149.588 583.483,149.348C580.72,148.708 578.288,147.748 576.188,146.469C573.093,149.508 569.557,152.087 565.578,154.206C561.598,156.325 557.62,157.384 553.641,157.384C549.109,157.384 545.738,156.544 543.528,154.865C541.318,153.186 539.963,151.007 539.466,148.329C538.969,145.649 539.135,142.651 539.963,139.333C540.814,135.953 541.98,132.66 543.445,129.497C544.891,126.344 546.524,123.28 548.335,120.322C550.105,117.443 551.762,115.084 553.309,113.245C556.404,109.567 559.886,106.508 563.754,104.069C567.622,101.631 571.878,100.411 576.52,100.411L576.686,100.411C579.117,100.491 581.411,100.831 583.566,101.431C585.721,102.031 587.572,103.01 589.12,104.369C590.447,105.49 591.521,106.88 592.27,108.447C593.043,110.047 593.375,111.926 593.264,114.085C593.264,116.004 592.933,118.103 592.27,120.382C591.606,122.661 590.695,125.04 589.534,127.518C588.322,130.092 586.966,132.595 585.472,135.015C583.937,137.517 582.219,139.902 580.332,142.151C581.549,143.271 583.207,144.031 585.307,144.431C586.412,144.591 587.351,144.671 588.125,144.671C590.115,144.671 591.91,144.391 593.513,143.831C595.116,143.271 596.525,142.551 597.741,141.671C599.157,140.65 600.463,139.485 601.637,138.193C602.763,136.958 603.789,135.634 604.704,134.235C604.924,133.915 605.146,133.615 605.367,133.335C605.588,133.055 605.809,132.715 606.03,132.316C606.251,131.996 606.472,131.656 606.693,131.296C606.914,130.936 607.135,130.556 607.356,130.157C607.688,129.517 608.323,129.057 609.263,128.777C610.203,128.497 611.114,128.517 611.998,128.837L611.998,128.838ZM576.354,128.718C577.238,128.878 577.929,129.258 578.426,129.858C578.924,130.457 579.062,131.117 578.841,131.836C578.62,132.316 578.454,132.796 578.343,133.276C578.233,133.756 578.123,134.196 578.012,134.595C580.554,130.997 582.543,127.358 583.98,123.68C585.417,120.002 586.19,116.763 586.301,113.965C586.411,111.246 585.583,109.167 583.814,107.728C582.93,107.008 581.88,106.468 580.664,106.108C579.449,105.748 578.067,105.528 576.52,105.448C573.315,105.448 570.275,106.428 567.401,108.388C564.528,110.346 561.875,112.845 559.444,115.884C558.338,117.164 557.067,118.942 555.63,121.221C554.107,123.654 552.696,126.155 551.403,128.718C550.042,131.388 548.878,134.154 547.921,136.994C546.981,139.793 546.457,142.331 546.346,144.61C546.236,146.89 546.733,148.748 547.838,150.188C548.944,151.627 550.878,152.347 553.641,152.347C556.736,152.347 559.913,151.307 563.174,149.228C566.451,147.136 569.481,144.682 572.209,141.912C571.325,140.392 570.883,138.513 570.883,136.274C570.883,134.355 571.27,132.436 572.043,130.517C572.265,129.797 572.79,129.277 573.618,128.957C574.448,128.637 575.359,128.557 576.354,128.717L576.354,128.718Z" style="fill:rgb(233,101,118);fill-rule:nonzero;"/>
            </g>
            <ellipse cx="178" cy="43.626" rx="6.5" ry="6.5" style="fill:white;"/>
            <ellipse cx="26" cy="152.097" rx="6.5" ry="6.5" style="fill:white;"/>
            <ellipse cx="631.502" cy="80.883" rx="8" ry="8" style="fill:white;"/>
            <ellipse cx="34" cy="92.097" rx="6.5" ry="6.5" style="fill:white;"/>
            <ellipse cx="607.5" cy="105.097" rx="6.5" ry="6.5" style="fill:white;"/>
            <ellipse cx="468" cy="43.626" rx="6.5" ry="6.5" style="fill:white;"/>
            <ellipse cx="191" cy="174.597" rx="6.5" ry="6.5" style="fill:white;"/>
            <ellipse cx="8.999" cy="113.691" rx="4.5" ry="4.5" style="fill:white;"/>
            <ellipse cx="395.491" cy="181.097" rx="6.5" ry="6.5" style="fill:white;"/>
            <ellipse cx="4.499" cy="70.691" rx="4.5" ry="4.5" style="fill:white;"/>
            <ellipse cx="605.499" cy="70.691" rx="4.5" ry="4.5" style="fill:white;"/>
            <ellipse cx="214.499" cy="70.691" rx="4.5" ry="4.5" style="fill:white;"/>
        </g>
    </g>
</svg>
