<svg viewBox="0 0 300 355" xmlns="http://www.w3.org/2000/svg" fill-rule="evenodd" clip-rule="evenodd" stroke-linejoin="round" stroke-miterlimit="1.414">

	<defs>
	    <linearGradient id="grad1" x1="0%" y1="0%" x2="0%" y2="100%" gradientUnits="userSpaceOnUse">
	      <stop offset="0%" style="stop-color: #F4CC8B; stop-opacity:1" />
	      <stop offset="100%" style="stop-color: #E96576; stop-opacity:1" />
	    </linearGradient>
	  </defs>

	<path fill="url(#grad1)" d="M141.525.003c-.542.007-3.004.842-5.723 1.948-5.339 2.173-6.313 2.435-6.545 1.779-.071-.2-1.44-.514-3.037-.69-2.502-.276-3.479-.184-7.066.678-4.902 1.177-6.325 2.184-6.413 4.537-.082 2.188-1.16 3.37-3.206 3.497-1.816.112-4.223-1.008-4.223-1.96 0-.277-.529-.822-1.186-1.21-1.048-.62-1.406-.638-2.903-.218-.939.262-2.207.377-2.82.254-1.082-.217-1.125-.165-1.464 1.791-.241 1.397-.185 2.99.182 5.214.291 1.762.423 3.461.302 3.775-.505 1.317-5.372.114-5.045-1.246.58-2.412-2.917-1.555-4.707 1.15-.581.877-1.136 2.298-1.234 3.17-.168 1.489-.088 1.653 1.367 2.661 1.399.969 1.575 1.287 1.815 3.207.295 2.362-.113 3.242-1.5 3.242-1.023 0-2.166-1.787-2.166-3.387 0-.652-.326-1.446-.774-1.852-.746-.675-.885-.677-2.843-.06-1.228.387-2.48 1.121-3.098 1.815-2.422 2.719-6.829.332-6.836-3.703-.002-1.29-.201-1.727-1.137-2.419-1.031-.762-1.281-.797-2.589-.363-1.158.383-1.524.742-1.791 1.778-.267 1.036-.2 1.394.327 1.779 1.501 1.098-.402 7.11-2.735 8.627-1.883 1.224-4.708 7.074-3.981 8.239.27.432.789.874 1.162.992 1.342.426.357 3.094-1.041 2.819-.807-.158-1.108-.643-1.778-2.916-.345-1.169-.729-1.672-1.392-1.839-.966-.242-1.225-1.303-.496-2.032.231-.231.362-.829.291-1.331-.168-1.181-2.508-2.374-3.558-1.815-1.161.619-2.797-.344-4.936-2.904-1.719-2.057-1.93-2.494-1.694-3.533.148-.652.297-2.318.327-3.702.054-2.478.04-2.517-1.017-2.638-1.115-.128-3.775 1.235-3.775 1.936 0 .216-.823 1.897-1.827 3.739-1.208 2.216-1.781 3.709-1.706 4.428.076.717-.388 1.929-1.367 3.569-1.412 2.367-2.293 3.071-4.198 3.364-.441.067-1.011.675-1.331 1.403-.482 1.094-.707 1.245-1.549 1.041-.542-.132-1.638-.666-2.432-1.186-1.982-1.297-3.676-1.22-5.711.254-1.361.987-1.875 1.148-2.964.944-.993-.186-1.593-.053-2.432.544-1.509 1.075-4.112 1.09-4.682.025-.559-1.044-1.405-.985-1.682.121-.256 1.018-1.93 1.941-2.94 1.621-.371-.118-1.136.157-1.706.605-.842.662-1.029 1.123-1.029 2.553 0 1.564.242 2.033 2.323 4.549 1.29 1.56 2.323 3.192 2.323 3.666 0 .47.428 1.237.944 1.706 3.723 3.387 3.435 2.903 3.194 5.481-.12 1.294-.329 2.654-.472 3.025-.142.371-1.683 1.388-3.424 2.251-2.704 1.339-3.317 1.513-4.21 1.173-.823-.313-1.432-.237-2.831.363-.979.42-2.022.762-2.323.762a.574.574 0 0 0-.557.581c0 .32.14.581.315.581.174 0 1.006 1.539 1.839 3.424 1.742 3.945 3.362 5.481 5.783 5.481 2.272 0 2.904.548 2.904 2.48 0 1.024-.272 2.038-.702 2.602-.387.508-1.414 2.171-2.287 3.702l-1.585 2.783.412 2.831c.323 2.177.726 3.242 1.718 4.622 1.452 2.02 1.661 2.184 6.618 4.937 4.065 2.257 5.826 2.509 8.663 1.222 1.858-.843 3.236-1.03 2.832-.375-.142.228.119.815.58 1.306.781.831.805.997.291 2.226-.304.728-1.556 2.402-2.783 3.727l-2.239 2.408.484 1.73.497 1.742h3c2.121 0 3.125-.167 3.448-.556.252-.303 1.189-.662 2.082-.811 3.084-.514 8.009-3.524 8.009-4.888 0-.899 2.517-5.968 3.158-6.364.253-.157.992-.387 1.646-.52 1.214-.249 1.952-1.245 2.335-3.146.295-1.468 2.509-3.55 5.348-5.022l2.492-1.294 5.578 1.464c6.789 1.774 7.549 2.048 9.05 3.339 3.858 3.32 8.425 6.123 12.196 7.478 2.173.78 4.265 1.415 4.658 1.415.897 0 4.073 3.55 5.022 5.614.503 1.095.794 2.992.992 6.486.154 2.718.43 5.038.617 5.154.187.115.339.616.339 1.101 0 .5.68 1.579 1.56 2.504 2.864 3.01 4.422 7.444 3.981 11.301-.16 1.398.004 2.183.787 3.727.899 1.775 1.136 1.972 2.577 2.165 2.161.29 2.842.913 2.553 2.36-.191.952-.016 1.392 1.004 2.444.683.705 1.42 1.282 1.633 1.282 1.814 0 7.587 6.705 7.587 8.809 0 .935-.177 1.234-.823 1.331-2.025.301-1.88 2.459.218 3.206.904.322 1.164.245 1.778-.569.903-1.196 2.733-1.124 5.118.206.908.506 2.253 1.223 2.989 1.597 1.66.845 4.272 3.495 4.283 4.344.004.347.573 1.761 1.27 3.145 1.143 2.27 1.404 2.525 2.577 2.638 2.096.203 6.739 3.576 7.72 5.602.449.929.81 1.953.81 2.287 0 .333.567 1.04 1.259 1.573 2.29 1.762 5.888 5.422 7.283 7.417 1.297 1.852 1.585 2.043 5.034 3.23 3.185 1.096 3.869 1.497 5.287 3.098.896 1.011 1.68 2.187 1.742 2.613.083.564.456.806 1.392.895.706.068 1.508-.065 1.778-.29.271-.225 1.176-.639 2.009-.932 1.375-.483 1.799-.447 4.61.375 3.235.946 5.046 1.14 5.384.593.409-.661 2.494.054 3.606 1.234 1.314 1.397 3.934 5.555 5.65 8.966.643 1.278 1.388 2.759 1.657 3.291.388.765.837.992 2.142 1.089.907.067 2.025-.071 2.48-.315.709-.379 1.136-.24 3.001 1.029 2.8 1.905 2.971 2.386 1.367 3.714-2.435 2.016-2.637 2.229-2.637 2.807 0 .794 1.092.724 2.758-.169.98-.526 1.841-.677 2.916-.533 1.114.15 1.668.031 2.045-.423.283-.341.844-.617 1.258-.617.414 0 1.115-.191 1.549-.424 1.179-.631 2.832 1.134 4.634 4.937 1.672 3.528 1.721 3.809.944 5.396-1.172 2.393-.937 3.425 1.064 4.598.924.541 1.926.978 2.227.98.3.002 2.052 1.396 3.896 3.097 1.844 1.702 3.673 3.098 4.065 3.098.392 0 1.208-.61 1.803-1.355 1.897-2.378 4.193-1.518 6.207 2.323 1.1 2.097 1.332 3.031 1.682 6.582.24 2.439 1.822 5.949 4.004 8.905 1.399 1.894 2.311 4.753 2.311 7.211 0 2.214 1.203 7.452 2.118 9.22.362.7.996 1.357 1.403 1.464.976.255 1.008 2.858.061 4.755-.662 1.324-.718 1.352-2.71 1.222-1.761-.115-2.305.037-3.981 1.113-1.658 1.064-2.698 2.145-2.698 2.819 0 .096.334.257.738.363.404.106 1.003.608 1.331 1.113.518.798.531 1.203.084 3.11-.753 3.214-2.393 6.003-3.811 6.497-1.519.529-1.827.51-1.827-.097 0-.275-.671-.674-1.5-.895-1.441-.385-1.773-.282-7.284 2.468l-5.759 2.88-1.537-.642c-.843-.354-2.447-.639-3.569-.641-1.746-.003-2.322.201-3.993 1.428-3.458 2.538-10.043 3.744-15.789 2.904-3.069-.449-3.181-.433-4.828.532-2.688 1.575-4.279 1.366-9.014-1.174-3.235-1.735-4.029-2.316-4.029-3 0-.469-.251-1.21-.557-1.646-.522-.746-.716-.766-3.472-.375-2.35.334-3.132.613-3.981 1.464-.828.831-.961 1.168-.593 1.537.259.258.472.608.472.774 0 .401-2.899 1.864-3.69 1.863-.342 0-1.445-.849-2.456-1.887l-1.839-1.887-2.36 1.403c-1.302.772-2.711 1.839-3.121 2.371-1.007 1.307-1.789 3.794-1.67 5.288.063.796-.118 1.348-.52 1.573-.541.302-.559.606-.145 2.395.405 1.756.8 2.347 2.807 4.163l2.335 2.117 3.4-.266c3.235-.253 3.473-.225 4.852.726.796.549 2.223 1.169 3.182 1.379 1.356.297 2.128.811 3.484 2.311 1.621 1.793 6.475 4.707 7.841 4.707.276 0 1.232.765 2.117 1.706.908.965 2.69 2.23 4.102 2.903 2.309 1.103 2.725 1.182 5.36.968 2.577-.209 3.009-.141 4.585.751 2.397 1.356 4.538 3.531 5.965 6.061 1.121 1.988 1.457 2.25 5.021 4.029 3.489 1.742 3.941 1.883 5.239 1.537 1.691-.451 5.05.25 5.651 1.186.488.76 2.083.786 2.371.036.12-.313-.071-1.329-.423-2.25-.603-1.58-.598-1.787.072-3.594.57-1.534 1.119-2.182 2.735-3.267 2.019-1.355 2.019-1.359 1.923-3.291-.078-1.58-.229-1.961-.859-2.081-1.668-.318-4.411-6.018-4.513-9.389-.063-2.1.036-2.435.932-3.182 1.083-.903 2.214-4.149 2.214-6.352 0-1.391 1.498-3.866 5.263-8.712 1.303-1.676 2.345-3.548 2.904-5.226.479-1.439.942-2.353 1.029-2.033.086.319.341.96.568 1.428.238.488.323 1.939.206 3.399-.191 2.384-.128 2.608.883 3.691.594.635 1.31 1.172 1.597 1.185 7.004.322 8.3.273 8.966-.326.953-.858 1.71-2.65 1.996-4.731.334-2.425 4.211-7.146 6.171-7.514.79-.148 1.959-.874 2.904-1.79 1.547-1.502 1.589-1.597 1.585-4.15-.003-1.438-.25-3.526-.545-4.634-.779-2.928.093-4.547 3.582-6.655 3.547-2.144 5.749-2.78 7.78-2.238.867.231 1.572.557 1.572.726 0 .168.255.314.569.314 1.455 0 2.319-4.446 1.162-5.977-.704-.93-.779-6.778-.121-9.389.42-1.671.393-1.818-.484-2.492-.512-.394-1.542-.993-2.287-1.343-.745-.351-2.687-1.665-4.32-2.916-2.521-1.933-3.209-2.275-4.573-2.275-.883 0-1.948-.179-2.359-.399-.81-.434-2.299-3.058-2.299-4.054 0-.337.706-1.891 1.561-3.448 1.271-2.317 1.533-3.168 1.476-4.694-.063-1.644.077-1.99 1.113-2.868 1.203-1.019 2.432-3.046 2.432-4.005 0-.294.697-1.53 1.548-2.746.852-1.216 1.549-2.336 1.549-2.493 0-.489 2.84-3.235 3.666-3.545.433-.162 1.942-.132 3.352.073l2.565.375-.932.992c-.509.55-.867 1.174-.798 1.379.068.206 1.512 1.172 3.206 2.154 2.729 1.582 3.315 1.788 5.203 1.73 2.94-.09 7.717.603 8.735 1.271 1.324.867 3.402 5.728 3.182 7.441-.1.779.018 1.898.267 2.492.626 1.499 3.927 4.145 5.19 4.162.563.008 1.452.265 1.984.569.533.304 1.36.561 1.839.569.809.012.872-.156.872-2.323 0-2.65.603-4.383 2.081-5.978 1.348-1.454 1.286-2.616-.303-6.061-1.377-2.989-2.969-4.758-7.973-8.845-1.896-1.548-2.624-2.431-2.965-3.581-.539-1.822-1.132-2.307-4.174-3.424-1.269-.467-3.972-1.624-6.001-2.565-3.088-1.434-4.223-2.239-6.981-4.925-3.543-3.449-4.585-4.036-12.402-7.066-7.156-2.774-8.798-3.52-14.519-6.57-2.981-1.589-5.803-2.988-6.28-3.109-.477-.122-1.404-.83-2.057-1.573-.98-1.116-1.161-1.619-1.064-2.928.111-1.508.223-1.649 2.383-2.747 1.249-.634 2.861-1.75 3.582-2.492 1.509-1.554 1.667-2.873.653-5.324-.861-2.081-2.306-2.558-6.316-2.093-5.18.601-17.741.918-18.681.472a33.82 33.82 0 0 0-2.093-.871c-.677-.254-1.321-.69-1.428-.968-.107-.278-1.117-.811-2.25-1.186-3.721-1.23-5.748-2.895-5.748-4.731 0-.71-.902-1.357-2.516-1.802-.429-.119-3.414-2.787-6.631-5.929-6.343-6.198-8.14-8.731-9.824-13.842a108.1 108.1 0 0 0-1.61-4.525c-.391-.998-.713-2.433-.713-3.182 0-1.317-2.085-7.369-4.84-14.023-.734-1.773-1.249-3.459-1.137-3.751.236-.616-2.012-2.959-2.904-3.025-1.068-.079-1.346-.162-2.831-.822-1.65-.734-4.215-2.755-8.313-6.57-3.955-3.683-5.72-4.872-7.683-5.167-1.522-.228-2.076-.641-5.069-3.787-1.848-1.941-3.713-4.135-4.15-4.876-1.97-3.338-4.053-15.459-3.279-19.068.44-2.055.682-2.244 1.403-1.089.266.426.834.774 1.259.774.601 0 .781-.277.822-1.258.04-.948.09-1.036.218-.363.257 1.343.964.85 2.166-1.5 1.276-2.496 1.286-4.371.036-4.55-1.156-.165-3.18-2.4-6.122-6.763l-2.553-3.787 1.549-3.073c1.384-2.754 1.822-3.266 4.113-4.804 2.224-1.492 2.69-1.669 3.485-1.307.688.314.818.547.508.92-.227.273-.641.409-.919.302-.931-.357-5.251 4.589-5.251 6.014 0 .859.654.385 1.282-.932.356-.745.935-1.355 1.283-1.355.347 0 2.478-.989 4.743-2.202 8.4-4.499 10.61-5.542 11.76-5.542 1.171 0 1.177-.015.944-1.718-.184-1.34-.083-1.901.484-2.601l.726-.895 2.625.701c1.445.385 2.977.938 3.4 1.235.692.484.703.563.121.786-.828.318-.847 1.331-.024 1.331.344 0 1.302-.382 2.129-.847 1.17-.657 1.501-1.084 1.501-1.9 0-.576.252-1.141.556-1.258.848-.325 3.534 1.829 4.646 3.727 1.227 2.092 1.226 2.214.025 2.214-.603 0-.968.219-.968.581 0 .987 3.798.78 4.912-.267.915-.859 1.166-1.692.569-1.923-.184-.071-.869-.992-1.513-2.033-.984-1.591-1.559-2.05-3.63-2.928-1.861-.789-2.561-1.31-2.843-2.105-.278-.786-.233-1.139.157-1.38.288-.177.61-1.211.714-2.299.173-1.802.113-1.972-.617-1.972-.44 0-.909.174-1.04.387-.367.594-1.236.459-1.501-.229-.319-.834.745-2.557 2.154-3.473 1.763-1.146 2.609-4.035 1.186-4.053-.373-.005-1.442-.359-2.384-.787-1.172-.532-1.845-.647-2.117-.375-.632.633-.908.477-1.331-.738-.369-1.058-.271-1.255 1.416-2.831.995-.931 2.72-2.205 3.835-2.831 1.884-1.059 2.807-2.316 2.807-3.824 0-.7-4.693-1.774-8.808-2.008-3.876-.221-12.317-1.76-14.035-2.565-.533-.25-1.404-.51-1.936-.569-7.035-.771-8.105-1.262-9.692-4.44-1.202-2.408-2.897-4.574-3.569-4.574-.575 0-1.285-.9-1.742-2.214-.458-1.316-.423-1.39 1.258-2.25.924-.473 1.271-2.421.484-2.723-.019-.007-.049 0-.085 0zm1.487 304.023c-.352-.917.418-1.493 1.599-1.196.689.172.981.473.897.92-.172.905-2.17 1.126-2.496.276zm-6.335-1.719c0-.966.76-1.442 1.199-.75.564.891.392 1.501-.425 1.501-.508 0-.774-.258-.774-.751zm73.196-13.344c-.274-.512-.384-1.116-.244-1.342.14-.226-.101-.633-.535-.905-.924-.576-1.024-1.565-.227-2.227 1.025-.851 1.949-.321 2.008 1.152.03.742.248 1.84.484 2.439.592 1.5.543 1.814-.279 1.814-.39 0-.933-.419-1.207-.931zm-3.3-5.014c-.954-.698-.509-1.798.729-1.798 1.15 0 1.425.36 1.132 1.481-.253.967-.836 1.067-1.861.317zm9.284-7.601c-.328-.532.483-1.554 1.233-1.554.788 0 .487 1.702-.328 1.857-.353.067-.76-.069-.905-.303zm-160.832-3.643c-.691-.383-1.198-.41-2.002-.106-1.404.53-1.953.064-3.128-2.65-1.113-2.571-1.956-2.757-2.61-.575-.784 2.617-2.175 1.68-3.332-2.245-.33-1.118.378-2.014 1.591-2.014 1.157 0 1.151-.206-.047-1.777-1.169-1.533-1.187-1.777-.194-2.675.949-.859 1-1.965.112-2.462-.839-.469-.747-2.278.303-6.024.588-2.096.71-3.323.515-5.206-.195-1.886-.13-2.542.279-2.801.789-.5 1.114-.423 1.114.263 0 .338.217.541.483.453.578-.193 1.089-2.832.792-4.096-.198-.842-.338-.883-2.154-.633l-1.942.267.249-1.884c.138-1.036.598-2.799 1.024-3.92 1.206-3.174 1.063-7.087-.393-10.752-2.135-5.375-2.924-6.65-4.232-6.842-.901-.133-1.228-.003-1.405.555-.127.401-.434.661-.682.58-.611-.201-.812-1.818-.29-2.339.512-.513.553-2.296.063-2.802-.217-.224-.119-1.575.252-3.465.872-4.451 1.439-4.981 2.908-2.718.995 1.532 2.363 2.137 4.83 2.137 1.935 0 2.957-.444 4.135-1.799.498-.573 1.417-1.027 2.363-1.169 1.479-.221 3.291-1.415 3.291-2.167 0-.826 3.733-4.63 5.47-5.576 1.35-.735 1.887-1.263 1.887-1.856 0-1.023.693-1.758 1.657-1.758.4 0 2.592.953 4.87 2.118 4.005 2.049 4.177 2.19 5.196 4.268 1.306 2.663 1.305 2.865-.011 3.942-.832.681-.918.875-.395.886 1.117.023 4.17 6.863 4.17 9.343 0 .984.312 1.823.968 2.603.532.633.968 1.441.968 1.796 0 1.352-1.29 4.511-1.997 4.889-1.272.681-3.037 3.474-3.037 4.807 0 .736.469 1.931 1.155 2.943 1.358 2.003 1.477 3.701.588 8.348-.32 1.669-.581 4.58-.581 6.47 0 2.445-.345 4.955-1.199 8.711-.659 2.902-1.247 6.124-1.307 7.16-.121 2.103-.555 2.555-2.468 2.563-.952.005-1.735-.381-2.954-1.453-1.379-1.214-2.204-1.573-4.899-2.132-1.782-.369-3.372-.67-3.531-.67-.423.003-.355 2.759.122 4.986.501 2.335.03 3.469-2.325 5.596-1.663 1.503-2.723 1.723-4.24.882zm-13.743-7.383c-.866-1.322-.797-1.591.558-2.152 1.557-.645 2.096-.114 1.752 1.723-.314 1.67-1.368 1.866-2.31.429zm118.066-57.861c-.32-.519.143-1.49.838-1.757.828-.317.964-.093.666 1.095-.249.995-1.074 1.357-1.504.662zm-118.524-4.133c.29-1.156 1.915-3.839 2.571-4.244.588-.363 1.12.524 1.128 1.881.004.846-.154 1.062-.709.968-.924-.157-1.995.739-1.995 1.668 0 .41-.272.727-.623.727-.476 0-.564-.235-.372-1zm66.861-44.831c-.788-.839-.81-.973-.25-1.532.788-.789 1.617-.463 1.923.754.454 1.811-.351 2.185-1.673.778zm40.277-46.333c.075-.004.132.01.182.06.13.131.136.68 0 1.222-.267 1.063-1.185 1.334-1.525.448-.196-.511.821-1.705 1.343-1.73z"/>
</svg>