<svg viewBox="0 0 45 15" xmlns="http://www.w3.org/2000/svg" fill-rule="evenodd" clip-rule="evenodd" stroke-linejoin="round" stroke-miterlimit="1.414"><path fill="none" d="M0 0h45v15H0z"/><clipPath id="a"><path d="M0 0h45v15H0z"/></clipPath><g clip-path="url(#a)"><path d="M43.315 0h-19.13C23.254 0 22.5.768 22.5 1.715v11.57c0 .947.754 1.715 1.685 1.715h19.13c.931 0 1.685-.768 1.685-1.715V1.715C45 .768 44.246 0 43.315 0z" fill="#73af00" fill-rule="nonzero"/><path d="M33.548 2.099l-8.176 5.064a.398.398 0 0 0 0 .674l8.176 5.064c.124.077.28.077.404 0l8.176-5.064a.398.398 0 0 0 0-.674l-8.176-5.064a.382.382 0 0 0-.404 0z" fill="#ffe15a" fill-rule="nonzero"/><ellipse cx="33.75" cy="7.5" rx="3.103" ry="3.158" fill="#41479b"/><g fill="#f5f5f5" fill-rule="nonzero"><path d="M31.087 5.885c-.147.249-.26.52-.334.808 1.72-.132 4.265.358 5.885 1.957.106-.274.176-.567.202-.873-1.673-1.432-3.985-1.941-5.753-1.892zM33.879 8.578l.082.252.261.002c.034 0 .048.044.021.064l-.21.158.079.254c.01.033-.027.06-.054.04l-.213-.155-.212.155a.035.035 0 0 1-.054-.04l.078-.254-.21-.158c-.027-.02-.013-.064.021-.064l.261-.002.083-.252c.01-.033.056-.033.067 0zM34.894 9.23l.035.108.113.001c.014 0 .02.019.008.028l-.09.068.034.109c.004.014-.011.026-.023.017l-.092-.066-.091.066c-.012.009-.028-.003-.024-.017l.034-.109-.09-.068c-.012-.009-.006-.028.009-.028l.112-.001.036-.108c.004-.014.024-.014.029 0zM33.44 8.099l.035.108.113.001c.014 0 .02.019.008.028l-.09.068.034.109c.004.014-.011.026-.023.017l-.092-.066-.091.066a.015.015 0 0 1-.023-.017l.033-.109-.09-.068c-.012-.009-.006-.028.009-.028l.112-.001.036-.108c.004-.014.024-.014.029 0zM31.471 7.967l.035.109.113.001c.014 0 .02.019.008.027l-.09.068.034.109c.004.014-.012.026-.023.018l-.092-.067-.091.067c-.012.008-.028-.004-.024-.018l.034-.109-.09-.068c-.012-.008-.006-.027.009-.027l.112-.001.036-.109c.004-.014.024-.014.029 0zM33.118 9.192l.035.109.113.001c.014 0 .02.019.009.028l-.091.068.034.109a.015.015 0 0 1-.023.017l-.092-.067-.091.067c-.012.008-.028-.003-.023-.017l.034-.109-.091-.068c-.012-.009-.006-.028.009-.028l.112-.001.036-.109a.015.015 0 0 1 .029 0zM32.211 7.891l.03.089.092.001c.011 0 .016.016.007.023l-.074.055.028.089c.003.012-.01.022-.019.014l-.075-.054-.075.054c-.01.008-.023-.002-.019-.014l.028-.089-.074-.055c-.01-.007-.005-.023.007-.023l.092-.001.029-.089c.004-.011.02-.011.023 0zM34.973 6.06l.036.111.115.001c.015 0 .021.019.009.028l-.093.07.035.111c.005.015-.012.027-.024.018l-.093-.068-.094.068c-.012.009-.028-.003-.024-.018l.035-.111-.092-.07c-.012-.009-.006-.028.009-.028l.115-.001.036-.111a.016.016 0 0 1 .03 0zM31.597 7.349l.029.088.092.001c.012 0 .017.016.008.023l-.074.056.027.089c.004.011-.009.021-.019.014l-.075-.055-.074.055c-.01.007-.023-.003-.019-.014l.027-.089-.074-.056c-.009-.007-.004-.023.008-.023l.092-.001.029-.088c.003-.012.019-.012.023 0zM32.041 8.599l.044.135.139.001c.018 0 .026.023.011.034l-.112.084.042.135c.006.018-.014.032-.028.022l-.114-.083-.113.083c-.015.01-.034-.004-.029-.022l.042-.135-.112-.084c-.014-.011-.007-.034.011-.034l.139-.001.044-.135a.02.02 0 0 1 .036 0zM35.46 9.258l.027.085h.088c.011 0 .016.015.007.022l-.071.053.027.085c.003.011-.009.02-.018.013l-.072-.052-.071.052c-.009.007-.021-.002-.018-.013l.026-.085-.07-.053c-.009-.007-.004-.022.007-.022h.088l.027-.085a.012.012 0 0 1 .023 0zM35.766 8.613l.036.108.112.001c.015 0 .021.019.009.028l-.091.068.034.109a.015.015 0 0 1-.023.017l-.091-.066-.092.066c-.012.009-.027-.003-.023-.017l.034-.109-.091-.068c-.011-.009-.005-.028.009-.028l.113-.001.035-.108a.015.015 0 0 1 .029 0z"/></g><g><path d="M1.685 0C.754 0 0 .768 0 1.715v11.57C0 14.232.754 15 1.685 15H7.5V0H1.685z" fill="#73af00" fill-rule="nonzero"/><path fill="#f5f5f5" d="M7.5 0H15v15H7.5z"/><path d="M20.815 0H15v15h5.815c.931 0 1.685-.768 1.685-1.715V1.715C22.5.768 21.746 0 20.815 0z" fill="#ff4b55" fill-rule="nonzero"/></g></g></svg>