<?xml version="1.0" encoding="utf-8"?>
<!-- Generator: Adobe Illustrator 16.0.0, SVG Export Plug-In . SVG Version: 6.00 Build 0)  -->
<!DOCTYPE svg PUBLIC "-//W3C//DTD SVG 1.1//EN" "http://www.w3.org/Graphics/SVG/1.1/DTD/svg11.dtd">
<svg version="1.1" id="Layer_1" xmlns="http://www.w3.org/2000/svg" xmlns:xlink="http://www.w3.org/1999/xlink" x="0px" y="0px"
	 width="245px" height="505px" viewBox="0 0 245 505" enable-background="new 0 0 245 505" xml:space="preserve">
<polygon fill="#FFF7EB" points="71.272,85 0,165 120,146.667 "/>
<polygon fill="#FDE8C5" points="71.272,170 0,250 120,231.667 "/>
<polygon fill="#F4CC8B" points="71.272,255 0,335 120,316.667 "/>
<polygon fill="#E96576" points="71.272,340 0,420 120,401.666 "/>
<polygon fill="#282828" points="71.272,425 0,505 120,486.667 "/>
<polygon fill="#FFF7EB" points="125,146.667 245,165 173.728,85 "/>
<polygon fill="#FFFFFF" points="71.272,0 0,80 120,61.667 "/>
<polygon fill="#FFFFFF" points="125,61.667 245,80 173.728,0 "/>
<polygon fill="#FDE8C5" points="125,231.667 245,250 173.728,170 "/>
<polygon fill="#F4CC8B" points="125,316.667 245,335 173.728,255 "/>
<polygon fill="#E96576" points="125,401.666 245,420 173.728,340 "/>
<polygon fill="#282828" points="125,486.667 245,505 173.728,425 "/>
</svg>
